<?xml version="1.0" encoding="UTF-8"?>
<svg xmlns="http://www.w3.org/2000/svg" xmlns:xlink="http://www.w3.org/1999/xlink" width="554.12pt" height="232.96pt" viewBox="0 0 554.12 232.96" version="1.1">
<defs>
<clipPath id="clip1">
  <path d="M 376 41 L 554.121094 41 L 554.121094 163 L 376 163 Z M 376 41 "/>
</clipPath>
<clipPath id="clip2">
  <path d="M 320 171 L 490 171 L 490 232.960938 L 320 232.960938 Z M 320 171 "/>
</clipPath>
<clipPath id="clip3">
  <path d="M 234 185 L 318 185 L 318 232.960938 L 234 232.960938 Z M 234 185 "/>
</clipPath>
</defs>
<g id="surface1">
<path style=" stroke:none;fill-rule:nonzero;fill:rgb(0%,18.041992%,37.646484%);fill-opacity:1;" d="M 250.824219 141.207031 C 250.730469 141.117188 250.640625 141.023438 250.550781 140.933594 C 249.925781 140.242188 249.320313 139.53125 248.726563 138.8125 L 247.695313 138.8125 C 245.34375 138.9375 243.738281 139.101563 242.132813 139.101563 C 213.800781 139.117188 185.46875 139.121094 157.136719 139.105469 C 148.28125 139.101563 145.816406 136.65625 145.804688 127.855469 C 145.777344 101.070313 145.78125 74.289063 145.773438 47.503906 C 145.773438 45.578125 145.773438 43.652344 145.773438 41.558594 L 114.855469 41.558594 L 114.855469 46.953125 C 114.859375 75.734375 114.699219 104.515625 114.96875 133.292969 C 115.039063 141.042969 112.78125 147.730469 108.398438 153.769531 C 98.128906 167.914063 84.042969 174.433594 66.746094 172.136719 C 49.445313 169.839844 37.707031 159.78125 31.265625 143.558594 C 30.652344 142.007813 29.5625 139.433594 28.628906 139.402344 C 19.222656 139.089844 9.800781 139.210938 0 139.210938 C 0.414063 141.773438 0.601563 143.585938 1.007813 145.347656 C 7.65625 174.117188 30.925781 196.386719 59.214844 201.085938 C 90.0625 206.214844 119.214844 193.351563 135.183594 167.3125 C 137.074219 164.230469 139.003906 163.039063 142.648438 163.0625 C 168.8125 163.226563 194.980469 163.144531 221.144531 163.164063 C 222.53125 163.164063 223.921875 163.347656 225.449219 163.457031 L 225.679688 163.710938 C 236.140625 156.277344 244.628906 149.648438 249.730469 145.121094 C 250.183594 144.757813 252.1875 143.480469 250.824219 141.207031 "/>
<g clip-path="url(#clip1)" clip-rule="nonzero">
<path style=" stroke:none;fill-rule:nonzero;fill:rgb(0%,18.041992%,37.646484%);fill-opacity:1;" d="M 554.101563 125.78125 L 554.101563 91.496094 L 522.621094 91.496094 C 522.621094 103.949219 522.640625 116.050781 522.613281 128.152344 C 522.59375 136.109375 520.101563 138.621094 512.199219 138.625 C 481.375 138.640625 450.550781 138.636719 419.730469 138.628906 C 411.480469 138.625 409.128906 136.238281 409.125 127.871094 C 409.113281 101.097656 409.121094 74.320313 409.121094 47.542969 L 409.121094 41.53125 L 376.804688 41.53125 C 376.671875 42.597656 376.519531 43.238281 376.519531 43.882813 C 376.503906 80.800781 376.472656 117.722656 376.527344 154.644531 C 376.539063 160.242188 379.453125 162.867188 385.523438 162.867188 C 438.671875 162.90625 491.820313 162.90625 544.96875 162.871094 C 551.457031 162.867188 554.042969 160.199219 554.085938 153.722656 C 554.144531 144.410156 554.101563 135.097656 554.101563 125.78125 "/>
</g>
<g clip-path="url(#clip2)" clip-rule="nonzero">
<path style=" stroke:none;fill-rule:nonzero;fill:rgb(90.234375%,9.423828%,21.972656%);fill-opacity:1;" d="M 462.171875 187.765625 C 466.183594 182.34375 469.671875 177.632813 473.15625 172.917969 C 472.929688 172.457031 472.699219 171.996094 472.472656 171.535156 C 468.957031 172.300781 464.179688 171.890625 462.167969 174.046875 C 455.972656 180.695313 450.828125 188.324219 445.03125 195.898438 C 447.28125 197.691406 449.300781 199.300781 451.273438 200.875 C 457.757813 194.824219 463.628906 193.683594 470.109375 196.996094 C 475.570313 199.785156 478.609375 205.507813 477.863281 212.015625 C 466.933594 212.015625 455.957031 211.871094 444.988281 212.097656 C 441.425781 212.171875 439.960938 210.980469 439.394531 207.53125 C 438.214844 200.347656 436.6875 193.222656 435.226563 185.683594 C 432.421875 186.507813 430.109375 187.191406 427.636719 187.917969 C 429.132813 196.011719 430.546875 203.628906 432.097656 212.015625 C 429.308594 212.015625 427.164063 211.785156 425.089844 212.0625 C 420.507813 212.671875 418.589844 210.875 418.046875 206.242188 C 417.382813 200.546875 415.890625 194.949219 414.664063 188.875 C 411.945313 189.65625 409.769531 190.28125 407.1875 191.023438 C 408.433594 197.96875 409.621094 204.589844 410.953125 212.015625 C 408.304688 212.015625 406.320313 211.757813 404.429688 212.066406 C 399.550781 212.863281 397.59375 210.8125 397.070313 206.042969 C 396.554688 201.367188 395.238281 196.777344 394.210938 191.855469 C 391.332031 192.710938 389.160156 193.351563 386.769531 194.058594 C 387.871094 200.164063 388.886719 205.765625 389.96875 211.753906 C 387.414063 211.875 385.773438 211.984375 384.128906 212.027344 C 375.09375 212.265625 373.640625 211.105469 371.796875 202.109375 C 370.703125 196.785156 369.664063 191.453125 368.511719 185.679688 C 365.867188 186.480469 363.714844 187.136719 361.148438 187.914063 C 361.746094 191.429688 362.21875 194.679688 362.863281 197.898438 C 365.765625 212.402344 365.753906 212.328125 350.945313 212.09375 C 347.546875 212.039063 346.363281 210.851563 345.839844 207.617188 C 344.671875 200.441406 343.085938 193.332031 341.570313 185.703125 C 338.894531 186.492188 336.605469 187.164063 334.078125 187.90625 C 334.449219 190.183594 334.699219 191.980469 335.039063 193.757813 C 336.484375 201.269531 338.101563 208.746094 339.378906 216.285156 C 340.550781 223.203125 337.867188 226.117188 330.867188 225.4375 C 327.382813 225.097656 323.980469 223.945313 320.644531 223.183594 C 323.246094 230.28125 328.210938 233.703125 335.964844 232.824219 C 343.855469 231.929688 347.746094 227.304688 348.230469 219.761719 C 349.070313 219.523438 349.53125 219.316406 350.011719 219.265625 C 356.683594 218.558594 363.757813 220.816406 369.964844 216.484375 C 370.390625 216.1875 371.457031 216.855469 372.238281 217.011719 C 375.945313 217.746094 379.652344 219.0625 383.363281 219.082031 C 416.53125 219.242188 449.695313 219.179688 482.863281 219.167969 C 484.609375 219.167969 486.351563 219.023438 489.566406 218.882813 C 486.828125 211.175781 485.199219 203.949219 481.785156 197.691406 C 478.011719 190.773438 470.71875 188.210938 462.171875 187.765625 "/>
</g>
<path style=" stroke:none;fill-rule:nonzero;fill:rgb(90.234375%,9.423828%,21.972656%);fill-opacity:1;" d="M 511.496094 218.765625 L 553.546875 218.765625 L 553.546875 173.863281 L 502.785156 173.863281 C 505.746094 189.136719 508.632813 204.015625 511.496094 218.765625 "/>
<g clip-path="url(#clip3)" clip-rule="nonzero">
<path style=" stroke:none;fill-rule:nonzero;fill:rgb(90.234375%,9.423828%,21.972656%);fill-opacity:1;" d="M 313.105469 185.417969 C 310.265625 186.34375 307.871094 187.125 305.429688 187.921875 C 306.578125 193.96875 307.511719 199.359375 308.644531 204.707031 C 309.453125 208.542969 308.894531 211.269531 304.34375 211.921875 C 298.359375 212.773438 297.179688 212.140625 296.199219 207.101563 C 295.035156 201.121094 293.851563 195.144531 292.589844 188.738281 C 289.804688 189.550781 287.527344 190.21875 285.019531 190.953125 C 286.324219 198.179688 287.523438 204.808594 288.839844 212.113281 C 286.351563 212.113281 284.515625 211.855469 282.777344 212.164063 C 277.582031 213.082031 275.777344 210.542969 275.234375 205.804688 C 274.726563 201.410156 273.605469 197.085938 272.664063 192.25 C 269.933594 193.160156 267.664063 193.917969 265.613281 194.601563 C 265.496094 195.449219 265.363281 195.792969 265.417969 196.097656 C 266.679688 202.789063 267.960938 209.472656 269.238281 216.15625 C 270.019531 220.25 269.132813 223.703125 264.640625 224.714844 C 255.113281 226.855469 247.050781 224.59375 244.226563 214.238281 C 243.316406 210.902344 242.636719 207.507813 241.769531 203.777344 C 239.179688 204.53125 236.867188 205.203125 234.664063 205.839844 C 236.300781 224.429688 245.351563 233.265625 261.828125 232.878906 C 272.488281 232.628906 275.976563 229.882813 278.675781 219.179688 C 280.316406 219.179688 282.109375 219.183594 283.90625 219.175781 C 291.5625 219.152344 299.226563 219.335938 306.871094 219.042969 C 314.167969 218.761719 318.097656 214.398438 317.164063 207.347656 C 316.207031 200.136719 314.542969 193.019531 313.105469 185.417969 "/>
</g>
<path style=" stroke:none;fill-rule:nonzero;fill:rgb(90.234375%,9.423828%,21.972656%);fill-opacity:1;" d="M 304.90625 21.890625 L 336.769531 21.890625 L 336.769531 0.0351563 L 304.90625 0.0351563 Z M 304.90625 21.890625 "/>
<path style=" stroke:none;fill-rule:nonzero;fill:rgb(90.234375%,9.423828%,21.972656%);fill-opacity:1;" d="M 260.4375 21.789063 L 292.191406 21.789063 L 292.191406 0 L 260.4375 0 Z M 260.4375 21.789063 "/>
<path style=" stroke:none;fill-rule:nonzero;fill:rgb(0%,18.041992%,37.646484%);fill-opacity:1;" d="M 522.886719 77.605469 L 553.824219 77.605469 L 553.824219 55.769531 L 522.886719 55.769531 Z M 522.886719 77.605469 "/>
<path style=" stroke:none;fill-rule:nonzero;fill:rgb(90.234375%,9.423828%,21.972656%);fill-opacity:1;" d="M 484.632813 174.355469 C 487.589844 189.488281 490.472656 204.238281 493.304688 218.734375 L 501.441406 218.734375 C 498.367188 202.953125 495.390625 187.664063 492.3125 171.859375 C 489.496094 172.773438 487.214844 173.515625 484.632813 174.355469 "/>
<path style=" stroke:none;fill-rule:nonzero;fill:rgb(90.234375%,9.423828%,21.972656%);fill-opacity:1;" d="M 302.886719 135.925781 C 282.226563 138.476563 263.382813 123.730469 260.835938 103.070313 C 258.378906 82.40625 273.121094 63.566406 293.785156 61.015625 C 314.449219 58.46875 333.289063 73.214844 335.835938 93.875 C 338.386719 114.539063 323.640625 133.378906 302.886719 135.925781 M 361.6875 90.417969 C 357.410156 55.375 325.460938 30.433594 290.414063 34.710938 C 255.371094 38.988281 230.433594 70.9375 234.710938 105.980469 C 236.230469 118.542969 241.265625 129.773438 248.726563 138.8125 C 249.320313 139.53125 249.925781 140.242188 250.550781 140.933594 C 250.640625 141.023438 250.730469 141.117188 250.824219 141.207031 C 252.1875 143.484375 250.1875 144.757813 249.730469 145.121094 C 244.628906 149.648438 236.140625 156.277344 225.679688 163.714844 C 214.683594 171.53125 201.503906 180.242188 187.746094 188.355469 C 146.511719 212.660156 73.511719 219.667969 73.511719 219.667969 C 73.511719 219.667969 108.828125 226.402344 163.351563 215.84375 C 206.222656 207.5625 245.179688 175.25 260.835938 161.230469 C 262.5625 159.683594 263.476563 158.867188 264.839844 157.679688 C 266.386719 156.226563 267.660156 154.585938 270.027344 155.589844 C 270.117188 155.679688 270.300781 155.679688 270.394531 155.769531 C 271.484375 156.316406 275.214844 157.953125 275.214844 157.953125 C 277.308594 158.683594 279.402344 159.410156 281.40625 159.957031 C 281.40625 160.046875 281.40625 160.046875 281.496094 160.046875 C 282.40625 160.230469 283.40625 160.503906 284.316406 160.6875 C 284.410156 160.6875 284.5 160.777344 284.589844 160.777344 C 285.503906 160.957031 286.503906 161.140625 287.414063 161.324219 C 287.503906 161.324219 287.6875 161.414063 287.777344 161.414063 C 288.777344 161.503906 289.6875 161.6875 290.601563 161.777344 C 290.78125 161.777344 290.964844 161.867188 291.054688 161.867188 C 291.964844 161.960938 292.875 162.050781 293.785156 162.140625 L 294.328125 162.140625 C 295.242188 162.140625 296.0625 162.234375 296.96875 162.234375 L 297.515625 162.234375 C 298.425781 162.324219 299.246094 162.234375 300.15625 162.234375 L 300.703125 162.234375 C 301.519531 162.140625 302.433594 162.140625 303.25 162.050781 L 303.890625 162.050781 C 304.707031 161.960938 305.527344 161.867188 306.34375 161.777344 C 306.617188 161.777344 307.621094 161.59375 307.621094 161.59375 C 341.9375 156.589844 366.058594 125.097656 361.6875 90.417969 "/>
<path style=" stroke:none;fill-rule:nonzero;fill:rgb(90.234375%,9.423828%,21.972656%);fill-opacity:1;" d="M 376.855469 227.632813 C 376.855469 229.941406 374.984375 231.816406 372.671875 231.816406 C 370.363281 231.816406 368.492188 229.941406 368.492188 227.632813 C 368.492188 225.324219 370.363281 223.449219 372.671875 223.449219 C 374.984375 223.449219 376.855469 225.324219 376.855469 227.632813 "/>
</g>
</svg>
