<svg xmlns="http://www.w3.org/2000/svg" width="233" height="50" viewBox="0 0 233 50" fill="none">
  <g clip-path="url(#clip0_5389_1361)">
    <path d="M221.6 21.1579C221.464 20.4035 220.841 19.8509 220.083 19.8158C215.793 19.6009 211.442 19.4956 207.14 19.4956H206.517C202.477 19.5044 198.39 19.6096 194.359 19.807C193.57 19.8465 192.925 20.443 192.824 21.2281C192.679 22.3991 192.6 23.5877 192.596 24.7675C192.591 26.0219 192.67 27.2938 192.828 28.5395C192.925 29.3158 193.565 29.9167 194.341 29.9693C198.184 30.2193 202.087 30.3596 205.938 30.3816C210.649 30.4123 215.412 30.2675 220.105 29.9605C220.846 29.9079 221.456 29.3684 221.591 28.6403C221.824 27.3947 221.938 26.1184 221.938 24.8553V24.7149C221.929 23.5263 221.815 22.3289 221.6 21.1579ZM216.714 26.921C215.534 26.921 214.574 25.9605 214.574 24.7807C214.574 23.6009 215.534 22.6403 216.714 22.6403C217.894 22.6403 218.855 23.6009 218.855 24.7807C218.855 25.9605 217.894 26.921 216.714 26.921Z" fill="#ED3012"/>
    <path d="M208.756 0H205.881C190.042 0 182.07 2.42681 182.07 24.9978C182.07 47.5688 191.482 50 207.316 50C223.15 50 232.509 48.98 232.509 24.9978C232.509 1.01557 224.537 0 208.756 0ZM223.405 29.0293C223.124 30.5504 221.843 31.6847 220.289 31.7902C215.94 32.076 211.524 32.2211 207.153 32.2211H205.947C202.042 32.1947 198.094 32.054 194.202 31.799C192.578 31.6935 191.249 30.4405 191.046 28.827C190.879 27.5037 190.795 26.1541 190.8 24.822C190.804 23.569 190.888 22.3028 191.042 21.0587C191.249 19.4232 192.596 18.1746 194.246 18.0955C198.318 17.8933 202.452 17.7877 206.532 17.7789C211.08 17.7702 215.693 17.8757 220.24 18.0999C221.825 18.179 223.128 19.3265 223.414 20.8916C223.648 22.1665 223.771 23.4635 223.78 24.7604C223.788 26.1892 223.665 27.6224 223.405 29.0293Z" fill="#ED3012"/>
    <path d="M223.334 20.8421C223.049 19.2807 221.75 18.136 220.171 18.057C215.641 17.8333 211.044 17.7281 206.513 17.7368C202.448 17.7456 198.329 17.8509 194.272 18.0526C192.628 18.1316 191.285 19.3772 191.079 21.0088C190.926 22.25 190.842 23.5132 190.838 24.7632C190.834 26.0921 190.917 27.4386 191.084 28.7588C191.285 30.3684 192.61 31.6184 194.228 31.7237C198.106 31.9781 202.04 32.1184 205.93 32.1447H207.132C211.487 32.1447 215.886 32 220.22 31.7149C221.768 31.6097 223.044 30.4781 223.325 28.9605C223.584 27.557 223.706 26.1272 223.698 24.7017C223.689 23.4079 223.566 22.114 223.334 20.8421ZM221.939 24.8553C221.939 26.1184 221.825 27.3947 221.592 28.6403C221.456 29.3684 220.847 29.9079 220.106 29.9605C215.413 30.2675 210.649 30.4123 205.939 30.3816C202.088 30.3596 198.185 30.2193 194.342 29.9693C193.566 29.9167 192.926 29.3158 192.829 28.5395C192.671 27.2939 192.592 26.0219 192.597 24.7675C192.601 23.5877 192.68 22.3991 192.825 21.2281C192.926 20.443 193.571 19.8465 194.36 19.807C198.391 19.6096 202.478 19.5044 206.518 19.4956H207.141C211.443 19.4956 215.794 19.6009 220.084 19.8158C220.842 19.8509 221.465 20.4035 221.601 21.1579C221.816 22.3289 221.93 23.5263 221.939 24.7149V24.8553Z" fill="white"/>
    <path d="M216.715 26.9213C217.897 26.9213 218.855 25.963 218.855 24.781C218.855 23.5989 217.897 22.6406 216.715 22.6406C215.532 22.6406 214.574 23.5989 214.574 24.781C214.574 25.963 215.532 26.9213 216.715 26.9213Z" fill="white"/>
    <path d="M18.1562 25.7454C18.1562 26.9778 18.2747 28.1927 18.744 29.355C19.437 31.0831 20.7001 32.2015 22.4457 32.741C24.3405 33.3287 26.2834 33.4076 28.222 32.9296C29.6299 32.5831 30.7308 31.7892 31.4896 30.469C31.9721 31.3725 32.6606 31.9997 33.5028 32.4559C34.301 32.8857 35.1694 33.0918 36.0598 33.1664C37.4896 33.2936 38.9063 33.2103 40.2966 32.8243C42.7396 32.1445 44.108 30.5129 44.5773 28.0611C44.7352 27.2322 44.7747 26.3945 44.7703 25.5524C44.7659 22.2059 44.7659 18.8594 44.7615 15.5173C44.7615 15.3813 44.7484 15.241 44.722 15.105C44.608 14.491 44.3799 14.2454 43.7615 14.1489C43.1606 14.0524 42.5554 14.0611 41.9545 14.1357C41.2308 14.2278 40.9413 14.5831 40.8931 15.3287C40.8755 15.5655 40.8799 15.8024 40.8799 16.0392C40.8799 19.3857 40.8799 22.7322 40.8799 26.0743C40.8799 26.5611 40.8273 27.0392 40.7089 27.5129C40.472 28.4822 39.8843 29.1225 38.9106 29.3725C37.7089 29.6796 36.4984 29.6796 35.301 29.3506C34.1212 29.0261 33.5817 28.162 33.415 27.0085C33.3492 26.5655 33.3448 26.1225 33.3448 25.6752V17.8375C33.3448 17.5392 33.3361 17.2454 33.2922 16.9515C33.2045 16.3857 32.9501 16.0918 32.3931 15.9953C31.7659 15.8857 31.1299 15.8901 30.5028 15.9953C29.9589 16.0875 29.6957 16.3769 29.6036 16.9164C29.5554 17.219 29.5466 17.526 29.5466 17.8331V26.1182C29.5466 26.5129 29.5028 26.9076 29.4326 27.298C29.2133 28.4954 28.5027 29.219 27.3141 29.4471C26.2615 29.6489 25.2045 29.6664 24.1606 29.3989C22.9106 29.0743 22.2484 28.2585 22.1212 26.9734C22.0773 26.5217 22.0598 26.0655 22.0598 25.6094V19.6094C22.0598 19.3243 22.0598 19.0392 22.0071 18.7541C21.9062 18.2103 21.6606 17.9252 21.108 17.8375C20.4326 17.7278 19.7484 17.7322 19.0685 17.8418C18.6256 17.9164 18.3448 18.1796 18.2396 18.6225C18.165 18.9427 18.1562 19.2717 18.1562 19.5962V25.7454Z" fill="#101010"/>
    <path d="M9.40077 41.3813C7.71656 41.3112 6.08498 40.9734 4.60691 40.1006C3.15077 39.241 2.10252 38.0305 1.46217 36.4647C0.620062 34.3989 0.475333 32.241 0.606912 30.048C0.694631 28.5831 0.997256 27.1708 1.64199 25.8375C1.94462 25.2103 2.392 24.8989 3.08937 24.9208C3.62446 24.934 4.15954 24.8726 4.68585 24.9866C5.2034 25.0962 5.37007 25.3594 5.28235 25.8857C5.15954 26.6138 4.79989 27.2673 4.64638 27.9866C4.23849 29.9033 4.06743 31.8243 4.54989 33.7497C5.05866 35.7761 6.44024 36.8243 8.43147 37.1752C9.22533 37.3155 10.0236 37.3462 10.8262 37.3419H12.4008C13.3262 37.3419 14.2385 37.2629 15.1201 36.9559C16.5981 36.4383 17.4622 35.3638 17.8701 33.8857C18.2385 32.548 18.1508 23.7454 18.1508 22.3682L22.0543 29.9822C22.0543 31.8331 22.0894 33.684 21.5981 35.491C20.8569 38.2103 19.2253 40.0919 16.4753 40.9208C15.1815 41.3112 13.8569 41.4164 12.5192 41.412L9.40077 41.3857V41.3813Z" fill="#101010"/>
    <path d="M122.581 33.2275C123.779 33.2407 124.954 33.1223 126.099 32.8065C127.015 32.5565 127.818 32.1573 128.467 31.5696C128.673 31.7407 128.897 31.8986 129.138 32.0433C130.248 32.7188 131.476 33.0214 132.744 33.1398C133.296 33.1924 133.849 33.2231 134.401 33.2275H141.765C142.958 33.2407 144.147 33.1223 145.322 32.8065C146.836 32.403 148.081 31.6266 148.928 30.2889C149.581 29.2538 149.875 28.0916 149.941 26.8854L149.985 19.8459C149.985 19.5214 149.967 19.1924 149.945 18.8679C149.906 18.2801 149.599 17.9249 149.024 17.8372C148.498 17.7582 147.963 17.7319 147.428 17.7977C147.125 17.8328 146.818 17.8372 146.555 18.0301C146.112 18.3547 146.081 18.8415 146.081 19.3152V25.7012C146.081 25.9994 146.081 26.2977 146.059 26.5915C145.976 28.0565 145.283 28.9951 143.945 29.324C143.222 29.4994 142.498 29.5872 141.77 29.5828H134.406C133.708 29.5828 133.007 29.4995 132.314 29.3416C131.23 29.1003 130.507 28.438 130.252 27.324C130.208 27.131 130.173 26.938 130.147 26.7451L129.322 18.0082C129.287 17.6837 129.244 17.3547 129.191 17.0301C129.094 16.4424 128.752 16.0872 128.169 15.9994C128.024 15.9775 127.884 15.96 127.744 15.9512C127.349 15.9161 126.958 15.9117 126.568 15.96C126.27 15.9951 125.963 15.9994 125.717 16.1924C125.305 16.517 125.322 17.0038 125.371 17.4775L126.217 26.517C126.239 26.7582 126.248 27.0038 126.217 27.2407C126.09 28.3328 125.489 29.0433 124.388 29.324C123.682 29.4994 122.967 29.5872 122.239 29.5828H117.116C116.643 29.5828 116.16 29.6135 115.88 30.0565C115.708 30.3196 115.735 30.6266 115.73 30.9293C115.717 31.4644 115.774 31.7495 115.901 32.2758C116.029 32.8021 116.48 33.1968 117.02 33.2319L122.59 33.2231L122.581 33.2275Z" fill="#101010"/>
    <path d="M159.524 29.846C159.463 31.6311 159.283 33.3986 158.708 35.1048C157.937 37.3899 156.63 39.3153 154.783 40.8679C154.744 40.8986 154.704 40.9293 154.669 40.96C153.923 41.5916 153.586 41.5609 152.985 40.7934C152.673 40.3942 152.397 39.9732 152.173 39.5171C151.853 38.8679 151.901 38.5302 152.423 38.0302C153.016 37.4557 153.573 36.8548 154.007 36.153C154.897 34.7188 155.323 33.1355 155.533 31.482C155.665 30.4381 155.7 29.3943 155.7 28.3416L155.709 17.3811C155.709 17.2057 155.73 17.0258 155.766 16.8504C155.866 16.3416 156.143 16.0653 156.651 15.9907C157.283 15.8986 157.915 15.8943 158.546 15.9864C159.086 16.0653 159.375 16.3372 159.485 16.8679C159.555 17.1969 159.551 17.539 159.551 17.8723L159.516 29.8416L159.524 29.846Z" fill="#101010"/>
    <path d="M146.765 40.4823C145.335 40.4603 144.216 39.3156 144.243 37.9033C144.265 36.513 145.427 35.3638 146.804 35.3726C148.177 35.3814 149.374 36.5919 149.357 37.9559C149.339 39.3507 148.159 40.5042 146.765 40.4823Z" fill="#101010"/>
    <path d="M106.985 40.4823C105.555 40.4603 104.437 39.3156 104.463 37.9033C104.485 36.513 105.648 35.3638 107.025 35.3726C108.398 35.3814 109.595 36.5919 109.577 37.9559C109.56 39.3507 108.38 40.5042 106.985 40.4823Z" fill="#101010"/>
    <path d="M140.476 40.4823C139.046 40.4603 137.927 39.3156 137.954 37.9033C137.976 36.513 139.138 35.3638 140.515 35.3726C141.888 35.3814 143.085 36.5919 143.068 37.9559C143.05 39.3507 141.87 40.5042 140.476 40.4823Z" fill="#101010"/>
    <path d="M65.8043 22.9909C66.7166 23.0172 67.6245 23.0655 68.5149 23.276C69.3 23.4646 69.9666 23.7892 70.4184 24.355C70.7298 24.7453 70.8394 25.1313 70.914 25.3901C70.9359 25.4602 71.335 26.9295 70.5719 28.1313C70.414 28.3769 70.2473 28.5523 70.1991 28.605C69.8921 28.912 69.5368 29.1357 69.1464 29.2936C68.6552 29.4909 68.1289 29.5743 67.5982 29.5743L49.085 29.5874C48.357 29.5874 47.6289 29.5041 46.9096 29.3287C45.5719 28.9953 44.8789 28.0567 44.7956 26.5962C44.7824 26.3725 44.778 26.1488 44.7736 25.9295C44.7736 25.9295 44.7736 25.9208 44.7736 25.9164C44.7736 25.8462 44.7736 25.776 44.7736 25.7058C44.7736 24.9471 44.7736 24.1839 44.7736 23.4251C44.7736 20.833 44.7736 18.2365 44.7736 15.64C44.7736 15.3506 44.7605 15.0567 44.6508 14.7979C44.6508 14.7936 44.6508 14.7892 44.6465 14.7848C44.5763 14.6269 44.4666 14.4822 44.3 14.3594C44.0368 14.1664 43.7342 14.162 43.4272 14.1269C42.8921 14.0611 42.357 14.0918 41.8307 14.1664C41.5807 14.2015 41.3789 14.2892 41.2298 14.4251C41.2079 14.4471 41.1859 14.469 41.1684 14.4909C41.0149 14.662 40.9272 14.8988 40.9052 15.1883C40.9008 15.276 40.8921 15.3593 40.8921 15.4383C40.8921 15.4515 40.8921 15.4646 40.8921 15.4822C40.8789 15.7146 40.8701 15.9471 40.8701 16.1751C40.8701 17.8286 40.8701 19.4822 40.8701 21.4865C40.8921 22.8418 40.8307 24.4602 40.8833 26.1137C40.8877 26.3725 40.9008 26.6357 40.914 26.8944C40.9798 28.1006 41.2736 29.2629 41.9272 30.2979C42.2035 30.7322 42.5193 31.1093 42.8789 31.4295C43.6158 32.1006 44.5149 32.5392 45.5324 32.8155C46.7079 33.1313 47.8964 33.2453 49.0894 33.2322H66.6421C67.9929 33.2015 69.3263 33.0479 70.6114 32.5962C71.9052 32.1444 72.9535 31.4602 73.7078 30.4953C74.4228 29.5787 74.664 28.6751 74.8043 28.1444C74.9271 27.6795 75.2649 26.1971 74.8043 24.3901C74.6377 23.7409 74.3394 22.6444 73.4184 21.6181C73.0017 21.1532 72.4973 20.7541 71.9008 20.4251C71.0193 19.9383 70.085 19.6664 69.1201 19.4953C68.3614 19.3637 67.5938 19.3067 66.8219 19.3023L58.6157 19.2409L56.2956 19.219C56.2956 19.219 55.0675 19.2848 54.3745 18.4997C54.3438 18.469 53.6728 17.6576 53.9096 16.6883C54.107 15.8769 54.8044 15.4339 55.4184 15.105C55.7429 14.9295 56.0587 14.776 56.4008 14.6708L65.2561 11.9865C65.7079 11.8506 66.164 11.6795 66.3482 11.162C66.4535 10.8506 66.3701 10.5611 66.3175 10.2585C66.2254 9.72777 66.0456 9.22777 65.8175 8.74093C65.5675 8.21462 65.1377 8.02601 64.5631 8.15759C64.2473 8.22777 63.9272 8.3111 63.6158 8.4032L56.2298 10.662C55.6859 10.8374 55.2824 10.9734 55.1026 11.0436C53.7254 11.6006 52.4184 12.2672 51.3657 13.3418C50.8921 13.8243 50.5061 14.3418 50.2649 14.9076C49.8789 15.8243 49.9315 16.8462 49.9491 17.3857C49.9491 17.3901 49.9491 17.3944 49.9491 17.3988C49.9622 17.7322 50.05 19.9953 51.4842 21.5304C52.9315 23.083 55.8789 22.9997 56.2824 22.9997H65.8219L65.8043 22.9909Z" fill="#101010"/>
    <path d="M92.1503 32.5044C92.1503 33.3465 92.0494 34.193 91.8257 35.0044C91.8257 35.0088 91.8257 35.0176 91.8213 35.0219C91.4485 36.3772 90.5538 37.1316 89.2249 37.4079C87.3608 37.7983 85.488 37.7237 83.6152 37.443C82.7293 37.3114 81.8915 36.9956 81.0275 36.7983C80.4442 36.6667 80.1196 36.8904 79.9792 37.4693C79.8696 37.9255 79.9047 38.3948 79.9135 38.8553C79.931 39.943 80.1898 40.2895 81.2161 40.6316C82.9529 41.2105 84.7424 41.4298 86.567 41.4123C88.2863 41.3991 89.9924 41.25 91.6108 40.6228C93.124 40.0395 94.2994 39.057 95.0582 37.6009C95.7775 36.2193 96.045 34.7369 96.1328 33.2149H103.751C104.944 33.2281 106.133 33.1097 107.308 32.7939C108.821 32.3904 110.067 31.6141 110.913 30.2763C111.567 29.2413 111.861 28.079 111.927 26.8728L111.97 19.8333C111.97 19.5088 111.953 19.1798 111.931 18.8553C111.892 18.2676 111.585 17.9123 111.01 17.8246C110.484 17.7456 109.949 17.7193 109.413 17.7851C109.111 17.8202 108.804 17.8246 108.541 18.0176C108.098 18.3421 108.067 18.829 108.067 19.3026V25.6886C108.067 25.9869 108.067 26.2851 108.045 26.579C107.962 28.0439 107.269 28.9825 105.931 29.3114C105.207 29.4869 104.484 29.5746 103.756 29.5702H96.2029L96.1854 25.8027C96.1854 24.1535 96.0363 22.5263 95.488 20.9518C94.6415 18.5132 92.9266 17.0219 90.4354 16.4562C88.238 15.9605 86.0275 15.9956 83.8477 16.5746C81.8696 17.1009 80.3608 18.2456 79.6284 20.1974C79.1021 21.5965 78.8608 23.0176 78.8959 24.4474V26.0483C78.9222 27.1141 79.102 28.1798 79.4354 29.25C79.8345 30.5219 80.6415 31.6711 81.8345 32.3114C82.1064 32.4562 82.3827 32.5833 82.6634 32.693C83.5845 33.0526 84.567 33.2062 85.5538 33.2062H89.238C89.7687 33.2062 90.2029 32.7719 90.2029 32.2412V30.5263C90.2029 29.9956 89.5275 29.5614 88.7994 29.5614C88.5933 29.5614 88.4091 29.5614 88.4091 29.5614C87.4266 29.5614 86.4749 29.5877 85.51 29.3991C84.7293 29.2456 84.1547 28.9737 83.7468 28.5439C83.5494 28.3334 83.2249 27.9737 83.01 26.8334C82.6284 24.7807 82.9266 22.7676 83.0757 22.25C83.317 21.4079 83.5714 21.0219 83.8652 20.7325C84.2336 20.3684 84.7205 20.1228 85.3126 19.9956C86.6854 19.6974 88.0626 19.7193 89.4266 20.0877C90.5626 20.3948 91.2643 21.1491 91.6459 22.2412C91.9968 23.2544 92.1152 24.3026 92.1503 25.3597V32.4912V32.5044Z" fill="#101010"/>
  </g>
  <defs>
    <clipPath id="clip0_5389_1361">
      <rect width="232.018" height="50" fill="white" transform="translate(0.492188)"/>
    </clipPath>
  </defs>
<script xmlns=""/></svg>