<svg xmlns="http://www.w3.org/2000/svg" xmlns:xlink="http://www.w3.org/1999/xlink" id="Layer_1" x="0" y="0" version="1.1" width="476.5" height="482" viewBox="0 0 476.5 482" xml:space="preserve">
  <style type="text/css">
    .st2{opacity:.2}.st5{fill:#fff}.st13{fill:#007931}
  </style>
  <defs>
    <path id="SVGID_1_" d="M90.6,147.7c0,81.6,66.1,147.7,147.7,147.7c81.6,0,147.7-66.1,147.7-147.7C385.9,66.1,319.8,0,238.3,0 C156.7,0,90.6,66.1,90.6,147.7"/>
  </defs>
  <clipPath id="SVGID_2_">
    <use overflow="visible" xlink:href="#SVGID_1_"/>
  </clipPath>
  <linearGradient id="SVGID_3_" x1="-188.784" x2="-183.298" y1="852.293" y2="852.293" gradientTransform="scale(-53.8527 53.8527) rotate(60 640.5 584.803)" gradientUnits="userSpaceOnUse">
    <stop offset="0" stop-color="#72bf44"/>
    <stop offset=".198" stop-color="#61b541"/>
    <stop offset=".589" stop-color="#35993a"/>
    <stop offset="1" stop-color="#007932"/>
  </linearGradient>
  <path fill="url(#SVGID_3_)" d="M513.8 73.8L312.1 423.3 -37.3 221.5 164.4 -127.9z" clip-path="url(#SVGID_2_)"/>
  <defs>
    <path id="SVGID_4_" d="M96.5,147.7c0,78.3,63.5,141.8,141.8,141.8c78.3,0,141.8-63.5,141.8-141.8c0-78.3-63.5-141.8-141.8-141.8 C160,5.9,96.5,69.4,96.5,147.7"/>
  </defs>
  <clipPath id="SVGID_5_">
    <use overflow="visible" xlink:href="#SVGID_4_"/>
  </clipPath>
  <radialGradient id="SVGID_6_" cx="-188.626" cy="852.234" r="5.486" gradientTransform="matrix(30.8233 0 0 -30.8233 6051.073 26440.926)" gradientUnits="userSpaceOnUse">
    <stop offset="0" stop-color="#72bf44"/>
    <stop offset=".198" stop-color="#61b541"/>
    <stop offset=".589" stop-color="#35993a"/>
    <stop offset="1" stop-color="#007932"/>
  </radialGradient>
  <path fill="url(#SVGID_6_)" d="M96.5 5.9H380.1V289.5H96.5z" clip-path="url(#SVGID_5_)"/>
  <g class="st2">
    <defs>
      <path id="SVGID_7_" d="M173 114.3H283.2V157.6H173z"/>
    </defs>
    <clipPath id="SVGID_8_">
      <use overflow="visible" xlink:href="#SVGID_7_"/>
    </clipPath>
    <g clip-path="url(#SVGID_8_)">
      <defs>
        <path id="SVGID_9_" d="M173 114.3H283.2V157.6H173z"/>
      </defs>
      <clipPath id="SVGID_10_">
        <use overflow="visible" xlink:href="#SVGID_9_"/>
      </clipPath>
      <path fill="#0db14b" d="M282.4,152c0,0-6.3,3.8-18.7-4.6l-3.3,4c0,0,17.7,10.8,22.8,1.5C283.2,152.8,283.3,151.8,282.4,152 M268,141.2c0,0,0.9-0.2,0.8,0.8c0,0.6,1,0.7,1.6,0.7c1.1,0,1.9-0.9,1.8-2c-0.1-1.1-1-1.9-1.9-1.8c0,0-3-1.8-10.3,6.4 l-38.5-22.4c0,0-35.1-19.1-48.5-0.4c0,0,16.8-8.5,47.1,7.8l36.4,19l0,0c0,0-3,4.9-4.8,5.7c0,0-1.2,0.5-0.8-0.6 c0.2-0.6-1-0.9-1.7-0.9c-1,0-1.8,0.9-1.7,2c0,1,0.9,1.9,1.9,1.8c0,0,4.6,1.6,11.4-9C260.8,148.5,265.7,142.1,268,141.2" clip-path="url(#SVGID_10_)"/>
    </g>
  </g>
  <path d="M281.5,151.6c0,0-6.4,3.5-18.4-5.4l-3.5,3.8c0,0,17.2,11.6,22.7,2.5C282.3,152.5,282.5,151.5,281.5,151.6 M267.7,140.2c0,0,0.9-0.1,0.8,0.9c-0.1,0.6,0.9,0.8,1.6,0.8c1,0,1.8-0.8,1.8-1.9c0-1.1-0.8-1.9-1.8-1.9c0,0-3-2-10.6,5.9 l-37.5-24.2c0,0-34.2-20.6-48.5-2.6c0,0,17.3-7.7,46.7,10l35.6,20.7l0,0c0,0-3.3,4.7-5,5.4c0,0-1.2,0.4-0.9-0.6 c0.3-0.6-0.9-0.9-1.6-0.9c-1.1,0-1.9,0.9-1.9,1.9c0,1.1,0.8,1.9,1.9,1.9c0,0,4.5,1.8,11.8-8.4C260.2,147.2,265.3,141,267.7,140.2" class="st5"/>
  <g class="st2">
    <defs>
      <path id="SVGID_11_" d="M194.9 115.2H305.4V157.9H194.9z"/>
    </defs>
    <clipPath id="SVGID_12_">
      <use overflow="visible" xlink:href="#SVGID_11_"/>
    </clipPath>
    <g clip-path="url(#SVGID_12_)">
      <defs>
        <path id="SVGID_13_" d="M194.9 115.2H305.4V157.9H194.9z"/>
      </defs>
      <clipPath id="SVGID_14_">
        <use overflow="visible" xlink:href="#SVGID_13_"/>
      </clipPath>
      <path fill="#0db14b" d="M256.9,123.5l-38.7,22.1h0c-7.2-8.3-10.2-6.5-10.2-6.5c-1,0-2,0.8-2,1.8c0,1.1,0.7,2,1.8,2.1 c0.6,0,1.6-0.2,1.5-0.8c-0.1-1,0.9-0.8,0.9-0.8c2.3,0.9,7.1,7.4,7.1,7.4c6.8,10.7,11.3,9,11.3,9c1,0,2-0.8,2-1.8 c0.1-1-0.7-2-1.8-2c-0.7,0-1.9,0.2-1.7,0.8c0.4,1.1-0.9,0.6-0.9,0.6c-1.7-0.9-4.7-5.7-4.7-5.7l0,0l36.6-18.6 c30.4-16.1,47.2-7.4,47.2-7.4C292.1,104.7,256.9,123.5,256.9,123.5 M195.7,152c-0.9-0.1-0.8,0.8-0.8,0.8 c4.9,9.3,22.8-1.2,22.8-1.2l-3.3-4C201.9,155.9,195.7,152,195.7,152" clip-path="url(#SVGID_14_)"/>
    </g>
  </g>
  <path d="M254.1,120l-37.4,24.1c-7.6-7.8-10.5-5.9-10.5-5.9c-1.1,0-1.9,0.9-1.9,1.9c0,1.1,0.9,1.9,1.9,1.9 c0.6,0,1.6-0.2,1.5-0.8c-0.2-1,0.8-0.8,0.8-0.8c2.4,0.8,7.5,7,7.5,7c7.3,10.3,11.8,8.4,11.8,8.4c1.1,0,1.9-0.9,1.9-1.9 c0-1.1-0.8-1.9-1.9-1.9c-0.6,0-1.8,0.3-1.6,0.9c0.4,1-0.8,0.6-0.8,0.6c-1.8-0.8-5-5.5-5-5.5h0l35.5-20.7 c29.5-17.7,46.7-10,46.7-10C288.2,99.3,254.1,120,254.1,120 M194.6,151.9c-1-0.2-0.8,0.8-0.8,0.8c5.5,9,22.7-2.5,22.7-2.5 l-3.5-3.8C201,155.4,194.6,151.9,194.6,151.9" class="st5"/>
  <g class="st2">
    <defs>
      <path id="SVGID_15_" d="M194.9 19.7H288.2V118.3H194.9z"/>
    </defs>
    <clipPath id="SVGID_16_">
      <use overflow="visible" xlink:href="#SVGID_15_"/>
    </clipPath>
    <g clip-path="url(#SVGID_16_)">
      <defs>
        <path id="SVGID_17_" d="M194.9 19.7H288.2V118.3H194.9z"/>
      </defs>
      <clipPath id="SVGID_18_">
        <use overflow="visible" xlink:href="#SVGID_17_"/>
      </clipPath>
      <path fill="#0db14b" d="M242.9,20.1c0,0,3.2,2.6,3.7,8.7c0,0,7.2-6.7,14.6-0.9c0,0-4.8-0.7-7.3,3.4c0,0,22.9-1.6,34.3,18.7 c0,0-13.3-10.6-28.6-9c0,0,23,8.3,26.3,34.1c0,0-12.6-20.8-27.5-24.7c0,0,15.5,16.6,11.5,37.3c0,0-6.5-22.4-17-30.8 c0,0,6.2,19.9-0.9,34.6c0,0,0.4-16-6.6-31.6L243,73.1l2,0.1l-2.2,13.6l1.6,0.1l-2.2,14l1.2,0.1l-2,13.6l5.3,3.9l-6.8-0.2 l-0.9,0l-6.8-0.2l5.6-3.5l-1.1-13.6l1.2,0l-1.3-14.1l1.5,0l-1.3-13.7l2,0l-1.5-13.3c-8.1,15.3-8.6,31.2-8.6,31.2 c-6.1-15.2,1.3-34.6,1.3-34.6c-11,7.7-18.9,29.7-18.9,29.7c-2.6-20.9,13.9-36.6,13.9-36.6c-15.1,3-29,22.9-29,22.9 c4.9-25.5,28.4-32.4,28.4-32.4c-15.1-2.6-29.1,7.2-29.1,7.2c12.7-19.5,35.5-16.5,35.5-16.5c-2.2-4.2-7.1-3.9-7.1-3.9 c7.8-5.3,14.6,1.8,14.6,1.8c0.8-6,4.2-8.4,4.2-8.4l0.4-0.4L242.9,20.1z" clip-path="url(#SVGID_18_)"/>
    </g>
  </g>
  <path d="M238.9,13.8c0,0,3.3,2.7,3.9,9.1c0,0,7-7.4,14.6-1.5c0,0-4.9-0.5-7.2,3.9c0,0,22.8-2.4,34.9,18.7 c0,0-13.6-10.8-28.9-8.5c0,0,23.2,8.1,27.3,35.4c0,0-13.3-21.7-28.3-25.3c0,0,16,17.2,12.7,39.3c0,0-7.2-23.6-18-32.2 c0,0,6.8,20.9,0.2,36.8c0,0,0-17-7.7-33.4l-1.9,14h1.9l-1.7,14.5h1.6l-1.7,15h1.1l-1.6,14.5l5.5,3.9h-6.9h-0.9h-6.8l5.5-3.9 L235,99.6h1.2l-1.8-15h1.6l-1.7-14.5h1.9l-1.9-14c-7.6,16.5-7.6,33.4-7.6,33.4c-6.6-16,0.2-36.9,0.2-36.9 c-10.7,8.6-17.9,32.2-17.9,32.2c-3.3-22.1,12.7-39.3,12.7-39.3c-15,3.6-28.3,25.3-28.3,25.3c4.2-27.4,27.4-35.4,27.4-35.4 c-15.3-2.2-28.9,8.6-28.9,8.6c12.1-21.2,34.9-18.7,34.9-18.7c-2.3-4.4-7.3-3.9-7.3-3.9c7.7-5.9,14.7,1.5,14.7,1.5 c0.6-6.4,3.9-9.1,3.9-9.1l0.4-0.4L238.9,13.8z" class="st5"/>
  <defs>
    <path id="SVGID_19_" d="M146.4,45.5c-8.7,7.1-37.8,34.6-44.7,91.2c-0.5,4.4-0.8,8.9-0.8,13.4c0,52.7,36.4,95.3,50.9,103.3 c18.8,10.5,36.1-8.8,37.5-10.4c5-4.3,45.3-39.9,45.3-60.6c0-2.6-0.6-5.1-1.9-7.1c-5.2-8.5-13.3-9.9-22.7-11.6 c-13-2.2-29.1-5.1-47.2-27.5c-11.5-14.2-17.3-31.9-17.3-52.5c0-12.1,2-22.4,3.8-29l4.5-15L146.4,45.5z M324.6,48.7 c1.3,3.9,5.5,17.9,5.5,35.2c0,20.6-5.8,38.2-17.3,52.4c-18.1,22.4-34.3,25.3-47.2,27.5c-9.4,1.7-17.4,3.1-22.6,11.6 c-1.3,2-1.9,4.4-1.9,7c0,21.3,39.7,56.1,45.2,60.8c6.9,7.9,22.4,18.9,37.5,10.4c14.5-8,50.9-50.6,50.9-103.3 c0-4.5-0.3-9-0.8-13.4c-6.8-56.6-36-84.1-44.8-91.2l-7.7-6.2L324.6,48.7z"/>
  </defs>
  <clipPath id="SVGID_20_">
    <use overflow="visible" xlink:href="#SVGID_19_"/>
  </clipPath>
  <radialGradient id="SVGID_21_" cx="-189.175" cy="852.827" r="5.486" gradientTransform="matrix(22.5319 0 0 -22.5319 4500.325 19363.73)" gradientUnits="userSpaceOnUse">
    <stop offset="0" stop-color="#72bf44"/>
    <stop offset=".274" stop-color="#57ab3e"/>
    <stop offset=".861" stop-color="#11782e"/>
    <stop offset="1" stop-color="#006b2a"/>
  </radialGradient>
  <path fill="url(#SVGID_21_)" d="M100.9 39.3H374.79999999999995V264H100.9z" clip-path="url(#SVGID_20_)"/>
  <defs>
    <path id="SVGID_22_" d="M104.6,137.1c-0.5,4.5-0.8,8.8-0.8,13.1c0,50.6,34.6,92.5,49.4,100.8c17.4,9.7,33.9-9.7,34-9.9 c0.6-0.5,44.4-38.2,44.4-58.6c0-2.1-0.4-3.9-1.4-5.6c-4.5-7.4-11.6-8.6-20.7-10.2c-13.5-2.4-30.2-5.3-49-28.6 c-14.1-17.4-18-37.6-18-54.4c0-12.5,2.1-23.2,3.8-29.7c0,0,1.1-3.9,1.8-6.3C139.9,54.6,111.4,81.4,104.6,137.1 M333.1,83.9 c0,16.9-3.9,36.9-18,54.2c-18.8,23.3-35.5,26.2-48.9,28.6c-9.1,1.6-16.2,2.8-20.7,10.2c-10.9,17.8,42.4,63.6,42.9,64.1 c0.2,0.2,16.7,19.6,34.1,9.9c14.9-8.3,49.4-50.2,49.4-100.8c0-4.3-0.3-8.6-0.8-13.1c-6.8-55.7-35.3-82.5-43.7-89.3 C328.9,52.2,333.1,66.3,333.1,83.9"/>
  </defs>
  <clipPath id="SVGID_23_">
    <use overflow="visible" xlink:href="#SVGID_22_"/>
  </clipPath>
  <radialGradient id="SVGID_24_" cx="-189.248" cy="852.715" r="5.486" gradientTransform="matrix(21.7856 0 0 -21.7856 4360.735 18727.65)" gradientUnits="userSpaceOnUse">
    <stop offset="0" stop-color="#a8702f"/>
    <stop offset=".162" stop-color="#ad7732"/>
    <stop offset=".39" stop-color="#bb893a"/>
    <stop offset=".658" stop-color="#d3a748"/>
    <stop offset=".953" stop-color="#f3d15b"/>
    <stop offset="1" stop-color="#f9d85e"/>
  </radialGradient>
  <path fill="url(#SVGID_24_)" d="M103.8 47.8H371.90000000000003V260.7H103.8z" clip-path="url(#SVGID_23_)"/>
  <path d="M186.9 176.8H288.5V242.60000000000002H186.9z" class="st5"/>
  <defs>
    <path id="SVGID_25_" d="M145.2,219.7c10.7,3.4,24.3,5,40.7,2.1v7.6c-1.7,1.3-6.4,4.7-12.9,7.2c-1,0.1-1.9,0.1-2.8,0.1 C154.1,236.8,146.7,223,145.2,219.7 M330.6,219.7c-1.6,3.4-9.7,18.6-27.8,16.9c-6.9-2.7-11.7-6.3-13.2-7.4v-7.3 c6,1.1,11.6,1.5,16.8,1.5C315.7,223.4,323.7,221.9,330.6,219.7 M258.7,213.9c15,4.8,26.1,13.2,29.2,15.8v12.1H187.7v-11.9 c2.7-2.3,13.9-10.9,29.2-15.9c1.2,3.9,5,10.3,17.1,10.3c2.4,0.1,7.7,0.2,9.3,0h0C253.2,223.7,257.2,217.6,258.7,213.9 M159.4,221.4c-17.4-6.4-19.1-22.8-19.3-27c11.5,5,26.5,8.4,45.8,8v18.8c-5,0.9-9.7,1.3-14.2,1.3 C167.4,222.5,163.2,222.1,159.4,221.4 M335.8,194.4c-0.1,4.3-1.9,20.6-19.2,27c-8,1.4-17,1.5-26.9-0.3v-18.7c1.1,0,2.2,0,3.2,0 C310.8,202.5,324.9,199.1,335.8,194.4 M258.7,213.9c0.6-1.6,0.9-2.7,0.9-2.7c1.4-9.1,16.5-17.9,28.3-23.5v40.2 C269.7,215.5,260.3,214.1,258.7,213.9 M187.7,187.6c12,5.6,27.2,14.4,28.7,23.6c0,0,0.1,1.1,0.5,2.7c-2.3,0.3-11.8,2.2-29.2,14.3 V187.6z M233.7,223.6c-24.7-4.6,1.5-17.5-46.1-38.4v-7.5h100.2v7.7c-46.5,20.6-21.8,33.4-44.8,38.1c0,0-0.1,0-0.2,0 c-0.5,0.1-1,0.2-1.6,0.3c-0.9,0.1-2.1,0.2-3.5,0.2C236.6,224,235.2,223.9,233.7,223.6 M159.8,198c-23.5-8.9-22.4-30.7-21.7-35.9 c8.7,7.1,20.1,13.9,35.2,19.5c0,0,5.6,2,12.7,5.2v14.8C176.1,201.3,167.5,200,159.8,198 M289.6,186.9c7.3-3.3,13-5.3,13-5.3 c15-5.6,26.5-12.4,35.2-19.5c0.6,5.1,1.7,27-21.8,35.9c-7.7,2-16.5,3.3-26.4,3.6V186.9z M324.8,167.7 c20.8-22.1,4.3-58.2,4.3-58.2l-0.7,2.7c0,0,16.1,35.4-6.2,57.2c-6.5,4.1-13.9,7.8-22.6,11.1c-3.7,1.3-7,2.7-10,4V176H185.9v8.5 c-3-1.3-6.2-2.6-9.7-3.9c-8.7-3.3-16.2-7-22.6-11.1c-22.3-21.8-6.2-57.2-6.2-57.2l-0.7-2.7c0,0-16.4,36.1,4.3,58.2 c-42.5-28.4-36.7-70.3-36.7-70.3l-2.6,6.7c0,0-5.7,30.2,24.4,56.3c-0.7,5.8-2,28.9,22.6,37.2c-46.3-12.6-55.2-50.7-55.2-50.7 l0.2,11.4c0,0,6.7,21.9,34,34.9c0.2,4.7,2.3,21.2,19.3,27.7c-29.7-6.1-45.7-29.1-45.7-29.1s1.2,4,2.7,7.9c0,0,9,11.7,27.3,18.6 c2.9,5,14,22,30.3,18.8c-10.3,3.8-24.6,5.4-38.6-5.5l3.3,4.4c0,0,6.3,5.8,16.9,6.9c3.6,3.8,13.6,12.5,25.9,5.5 c-12.5,4.4-18.9-2-21.3-5.3c7.8-0.2,17.3-3.2,28.1-11.8v12.2h103.7v-12.4c10.8,8.9,20.5,11.9,28.4,12.1 c-2.4,3.3-8.8,9.7-21.2,5.3c12.2,7,22.3-1.7,25.9-5.5c10.6-1.1,16.9-6.9,16.9-6.9l3.3-4.4c-14,10.9-28.2,9.3-38.6,5.5 c16.4,3.3,27.5-13.7,30.3-18.8c18.3-6.9,27.4-18.6,27.4-18.6c1.4-3.9,2.7-7.9,2.7-7.9s-16,22.9-45.7,29.1c17-6.5,19-23,19.3-27.7 c27.3-13,34-34.9,34-34.9l0.2-11.4c0,0-8.9,38.1-55.2,50.7c24.5-8.3,23.3-31.4,22.6-37.2c30.1-26.1,24.4-56.3,24.4-56.3l-2.6-6.7 C361.6,97.5,367.3,139.4,324.8,167.7"/>
  </defs>
  <clipPath id="SVGID_26_">
    <use overflow="visible" xlink:href="#SVGID_25_"/>
  </clipPath>
  <radialGradient id="SVGID_27_" cx="-189.446" cy="851.722" r="5.486" gradientTransform="matrix(19.963 0 0 -19.963 4019.829 17177.205)" gradientUnits="userSpaceOnUse">
    <stop offset="0" stop-color="#72bf44"/>
    <stop offset=".274" stop-color="#57ab3e"/>
    <stop offset=".861" stop-color="#11782e"/>
    <stop offset="1" stop-color="#006b2a"/>
  </radialGradient>
  <path fill="url(#SVGID_27_)" d="M103.5 97.5H372.4V255.5H103.5z" clip-path="url(#SVGID_26_)"/>
  <path d="M19.9,390.5c-10.9,0-19.6-8.9-19.6-19.8c0-2-0.1-4.8-0.3-9.2h9.7c0.1,4.5,0.1,7.4,0.1,9.2 c0.1,7,5.9,10.3,9.9,10.3c4.6,0,10.3-3.3,10-10.4v-0.5H15.2c-1.3-13.1,3.2-21,12.2-21.5c7.9-0.5,10.7,6.2,10.8,6.4l-7.2,3.7 c-0.3-1.2-1.7-2.3-3.1-2.1c-2.6,0.5-2.9,2.4-3.3,4.8h14.7l0.2,9.2C39.8,381.6,30.8,390.5,19.9,390.5 M10.2,396h8.4v8.1h-8.4V396z M22,396h8.4v8.1H22V396z" class="st13"/>
  <path d="M47.9,375.3l4.7-8.7h18.6c-0.8-6.2-6.2-9.4-9.5-9.4v-8.3c12.8,0,20,9.1,20,26.1v0.3H47.9z" class="st13"/>
  <path d="M116.6,375.3c-2.5,8.1-9.2,14.1-18.7,14.9c-2.8-3.1-3.5-4.2-6.6-7.4c5.1-0.3,11.9-3.2,14.9-7.4h-3.5 c-7.5,0-12.2-6.7-12.2-12.9c0-10.6,8.5-13.6,13.8-13.6c1.5,0,12.6,0.7,13.3,11.1c0,0.3,0,1.7,0.1,6.7h8.2v8.7H116.6z M107.9,360.9 c0-2.5-0.4-5.1-3.7-5.1c-3,0-4.6,2.9-4.6,5.6c0,2.6,1.4,5.1,4.3,5.1h4V360.9z" class="st13"/>
  <path d="M159.4,375.3c-3.3,0-5.9-1.7-7.3-2.8c-3.7,1.7-7.7,2.8-11.7,2.8h-15.8v-8.7h15.7c2.4,0,3.9-0.1,6-0.7 c-3.6-3.9-7.7-7-14.4-7.4v-6.9c13.4-9.1,30.5-6.4,39.8,2.2c-2.6,4.7-6.2,9.1-10.6,12.8h15.8v8.7H159.4z M146.1,355 c3.1,1.5,6,4,8.1,6.4c1.9-1.5,3.6-3.2,5-5.1C156.5,355,151.3,353.7,146.1,355" class="st13"/>
  <path d="M236.9,375.3c-3.2,0-5.4-1.8-6.7-3.3c-1.9,2.6-5.1,3.8-8.8,3.9c-2.9,0-6.5-0.6-9.3-4c-2.1,2.7-5.2,3.9-8.9,4 c-2.2,0-4.7-0.4-7-1.8v1.2h-20.7v-8.7h11l-0.2-15.8h9.8c0,5.8-0.1,6.6,0,10.2c0.1,4.4,2.6,6,5.3,6c2,0,3.1-0.8,3.1-3.3 c0-4.2-0.1-8.9-0.2-13.1h9.7c0.1,4,0.2,10.3,0.2,10.3c0,4.4,2.6,6,5.3,6c1.9,0,3.1-0.8,3.1-3.3c0-6.6,0-7.2-0.2-15l9.8,0.1 c0,5.9,0,7.8,0.1,11.5v0.1c0.2,4.4,3.3,6.2,5,6.2h6v8.7H236.9z" class="st13"/>
  <path d="M253.4,375.3h-11v-8.7h8.3c2.1,0,3.6-1,3.6-3.3c0-4.9-0.2-28.4-0.3-33.2h9.8c0.1,8,0.2,28.6,0.2,35.4 C264,371.5,260.3,375.3,253.4,375.3" class="st13"/>
  <path d="M273.4 375.3L273 330.2 282.7 330.2 283.1 375.3z" class="st13"/>
  <path d="M306.7,375.3l4.7-8.7h18.6c-0.8-6.2-6.2-9.4-9.5-9.4v-8.3c10.5,0,17.2,6.1,19.3,17.7h7.7v8.7H306.7z" class="st13"/>
  <path d="M357.2,375.3h-11v-8.7h8.3c2.1,0,3.5-1,3.5-3.3c0-4.9-0.1-9.7-0.1-14.4h9.7c0.1,7.9,0.2,9.9,0.2,16.7 C367.8,371.5,364.1,375.3,357.2,375.3 M346.6,380.8h8.4v8.1h-8.4V380.8z M358.5,380.8h8.3v8.1h-8.3V380.8z" class="st13"/>
  <path d="M397.3,375.3c-1.9,0-3.6-0.6-4.7-1.5c-1.9,9.2-9,15.5-19.4,16.3c-2.9-3.1-3.4-4.1-6.5-7.4 c7.2-0.6,16.6-5.4,16.5-13.4l-0.2-20.5h9.8l0.1,11.8c0.1,4.2,3.3,6,5,6h6.7v8.7H397.3z" class="st13"/>
  <path d="M429.9,375.3c-3.8,0-6.1-2.4-7.2-4.1c-2,2.7-5.3,4.1-8.6,4.1c-3.9,0.1-7,0-10.9,0v-8.7h8.1 c1.9,0,4.4-1.1,4.4-3.5l-0.1-14.3h9.7c0.1,3.8,0.1,7.9,0.1,11.6c0.1,4.4,3.3,6.2,4.9,6.2h6.6v8.7H429.9z M416.5,380.8h8.4v8.1 h-8.4V380.8z" class="st13"/>
  <path d="M446.8,375.3h-11v-8.7h8.3c2.1,0,3.5-1,3.5-3.3c0-4.9-0.2-28.4-0.3-33.2h9.8c0.1,8,0.2,28.6,0.2,35.4 C457.4,371.5,453.7,375.3,446.8,375.3" class="st13"/>
  <path d="M466.8 375.3L466.4 330.2 476.2 330.2 476.5 375.3z" class="st13"/>
  <path d="M10.1,469.1c3.4,1.6,8.7,3.2,14.2,3.2c5.9,0,9-2.3,9-5.7c0-3.2-2.7-5.1-9.5-7.3c-9.4-3.1-15.6-7.9-15.6-15.6 c0-8.9,8.1-15.6,21.4-15.6c6.5,0,11.1,1.2,14.4,2.6l-2.8,9.5c-2.2-1-6.3-2.5-11.8-2.5c-5.5,0-8.2,2.4-8.2,5 c0,3.3,3.1,4.8,10.5,7.5c10,3.4,14.6,8.2,14.6,15.6c0,8.8-7.2,16.2-22.8,16.2c-6.5,0-12.8-1.6-16-3.3L10.1,469.1z" class="st13"/>
  <path d="M97.9,472c0,3.6,0.2,7,0.7,9.1H87.1l-0.8-3.8H86c-2.7,3-6.9,4.7-11.8,4.7C66,482,61,476.4,61,470.4 c0-9.9,9.6-14.5,24.1-14.5v-0.5c0-2-1.2-4.9-7.5-4.9c-4.2,0-8.7,1.3-11.3,2.8l-2.3-7.5c2.8-1.5,8.5-3.4,16-3.4 c13.7,0,18,7.4,18,16.4V472z M85.5,463.2c-6.7,0-11.9,1.5-11.9,6c0,3,2.2,4.5,5,4.5c3.1,0,5.8-2,6.6-4.4c0.2-0.6,0.3-1.3,0.3-2 V463.2z" class="st13"/>
  <path d="M155.1,469c0,5,0.2,9,0.3,12.2h-11.1l-0.6-5.3h-0.2c-1.6,2.3-5.5,6.2-12.8,6.2c-8.4,0-14.5-4.8-14.5-16.5 v-22.3H129v20.4c0,5.5,1.9,8.8,6.5,8.8c3.5,0,5.6-2.2,6.4-4.1c0.3-0.7,0.5-1.5,0.5-2.6v-22.6h12.8V469z" class="st13"/>
  <path d="M213.5,426.1v43.8c0,4.3,0.1,8.8,0.3,11.3h-11.3l-0.5-5.5h-0.2c-2.5,4.2-7.6,6.4-12.8,6.4 c-9.7,0-17.6-7.7-17.6-19.5c-0.1-12.7,8.6-20.1,18.4-20.1c5.1,0,9,1.7,10.8,4.3h0.2v-20.6H213.5z M200.8,459.4 c0-0.7,0-1.5-0.2-2.2c-0.8-3.2-3.5-5.8-7.5-5.8c-5.9,0-8.8,4.8-8.8,10.8c0,6.3,3.5,10.4,8.7,10.4c3.7,0,6.7-2.3,7.5-5.7 c0.2-0.8,0.3-1.7,0.3-2.7V459.4z" class="st13"/>
  <path d="M238.5,438.3c-4.3,0-7-2.8-7-6.3c0-3.5,2.9-6.3,7.2-6.3c4.4,0,7,2.7,7.1,6.3 C245.8,435.5,243,438.3,238.5,438.3L238.5,438.3z M232.2,443.2h12.8v37.9h-12.8V443.2z" class="st13"/>
  <path d="M289.3,429.6c3.9-0.6,9.5-1.1,17.3-1.1c7.9,0,13.6,1.4,17.4,4.3c3.6,2.6,6,6.9,6,12c0,5.2-1.8,9.6-5.1,12.4 c-4.4,3.7-10.9,5.5-18.5,5.5c-1.7,0-3.1-0.1-4.4-0.3v18.7h-12.7V429.6z M302,453.3c1.1,0.2,2.4,0.3,4.3,0.3c6.8,0,11-3.2,11-8.5 c0-4.8-3.5-7.7-10-7.7c-2.6,0-4.4,0.1-5.3,0.4V453.3z" class="st13"/>
  <path d="M362.8,482c-12,0-21.2-7.3-21.2-19.6c0-12.3,8.7-20.1,22-20.1c12.5,0,20.9,8,20.9,19.5 C384.5,475.6,373.8,482,362.8,482L362.8,482z M363.1,473.5c5,0,8.1-4.6,8.1-11.4c0-5.6-2.4-11.3-8.1-11.3c-6,0-8.4,5.7-8.4,11.4 C354.7,468.7,357.6,473.5,363.1,473.5L363.1,473.5z" class="st13"/>
  <path d="M400.7,470.9c2.4,1.3,7.2,2.8,11,2.8c3.9,0,5.5-1.2,5.5-3.1c0-2-1.3-3-5.9-4.4c-8.6-2.6-11.8-6.9-11.8-11.3 c0-7.1,6.6-12.5,16.7-12.5c4.8,0,9,1.1,11.5,2.2l-2.2,8.1c-1.9-0.9-5.5-2.1-8.9-2.1c-3.1,0-4.9,1.1-4.9,3c0,1.8,1.6,2.8,6.6,4.4 c7.8,2.4,11,6.1,11.1,11.7c0,7.1-5.9,12.3-17.7,12.3c-5.4,0-10.1-1.2-13.2-2.7L400.7,470.9z" class="st13"/>
  <path d="M459.9,432.9v10.3h9.1v8.7h-9.1v13.8c0,4.6,1.3,6.7,5,6.7c1.8,0,2.6-0.1,3.8-0.3l0.1,8.9 c-1.6,0.6-4.7,1-8.2,1c-4.1,0-7.6-1.3-9.7-3.3c-2.3-2.2-3.5-5.9-3.5-11.2v-15.6h-5.4v-8.7h5.4v-7.1L459.9,432.9z" class="st13"/>
</svg>
