<?xml version="1.0" encoding="utf-8"?>
<svg version="1.1" xmlns="http://www.w3.org/2000/svg" x="0px" y="0px" width="796.2px" height="265.5px" viewBox="0 0 796.2 265.5">
<style type="text/css">.st0{fill:#84B740;}.st1{fill:#259BD6;}.st2{fill:#27292D;}</style>
<rect y="153.1" class="st0" width="336.8" height="112.2"/><rect class="st1" width="336.8" height="112.3"/><path class="st2" d="M673.6,242.5l-1.5,0.3c-5.2,1-7.1,1.4-10.9,1.4c-8.8,0-19.2-4.5-19.2-25.7c0-10.9,1.8-25.4,18.2-25.4h0.1c2.8,0.2,6,0.5,12,2.3l1.3,0.4L673.6,242.5z M676.3,136.8l-2.7,0.5v39.2l-2.4-0.7l-0.7-0.2c-2.7-0.8-8.9-2.6-14.9-2.6c-32.8,0-39.7,24.8-39.7,45.6c0,28.5,16,44.9,43.9,44.9c11.8,0,20.5-1.2,29.3-4.1c8.1-2.6,11-6.3,11-14.2V132.7C692.3,134.1,684.2,135.5,676.3,136.8"/><path class="st2" d="M771.1,243.2l-1.4,0.4l-5,1.3c-4.7,1.2-8.9,1.9-12.1,1.9c-7.7,0-12.3-3.8-12.3-10.3c0-4.2,1.9-11.3,14.5-11.3h16.3V243.2z M759.6,172.5c-10.1,0-20.5,1.8-33.4,5.8l-8.4,2.5l2.8,19l8.2-2.7c8.6-2.8,19.3-4.6,27.3-4.6c3.6,0,14.6,0,14.6,11.9v5.2h-15.3c-27.9,0-40.8,8.9-40.8,28c0,16.3,11.9,26.1,31.9,26.1c6.2,0,14.8-1.2,22.2-3l0.4-0.1l0.4,0.1l2.5,0.4c7.8,1.4,15.9,2.8,23.8,4.3V203C795.8,182.8,783.6,172.5,759.6,172.5"/><path class="st2" d="M576.8,243.2l-1.4,0.4l-5,1.3c-4.7,1.2-8.8,1.9-12.1,1.9c-7.7,0-12.3-3.8-12.3-10.3c0-4.2,1.9-11.3,14.4-11.3h16.3L576.8,243.2z M565.4,172.5c-10.2,0-20.5,1.8-33.4,5.8l-8.4,2.5l2.8,19l8.2-2.7c8.6-2.8,19.3-4.6,27.3-4.6c3.6,0,14.6,0,14.6,11.9v5.2h-15.3c-27.9,0-40.9,8.9-40.9,28c0,16.3,11.9,26.1,32,26.1c6.2,0,14.8-1.2,22.2-3l0.4-0.1l0.4,0.1l2.4,0.4c7.9,1.4,15.9,2.8,23.8,4.4v-62.4C601.6,182.7,589.4,172.5,565.4,172.5"/><path class="st2" d="M471.5,172.7c-12.7,0-23.2,4.2-27.1,6l-1,0.5l-0.9-0.7c-5.4-3.9-13.3-5.9-24.3-5.9c-9.7,0-18.8,1.4-28.7,4.3c-8.5,2.6-11.8,6.7-11.8,14.4v71.3h26.6v-65.9l1.3-0.4c5.4-1.8,8.6-2.1,11.7-2.1c7.7,0,11.6,4.1,11.6,12.1v56.4h26.2v-57.5c0-3.4-0.7-5.4-0.8-5.8l-0.9-1.7l1.8-0.8c4-1.8,8.4-2.7,13-2.7c5.3,0,11.6,2.1,11.6,12.1v56.4h26.1v-59C505.9,182.8,494.7,172.7,471.5,172.7"/>
</svg>
