<svg version="1.1" xmlns="http://www.w3.org/2000/svg" xmlns:xlink="http://www.w3.org/1999/xlink" x="0px" y="0px" viewBox="0 0 171.5 171.5" xml:space="preserve">
<g fill="#2B2F72">
	<path id="Path_7" d="M22.93,90.68c-0.05,0.45-0.18,0.89-0.4,1.29c-0.18,0.33-0.43,0.61-0.73,0.84c-0.29,0.21-0.62,0.36-0.96,0.46c-0.37,0.09-0.76,0.14-1.14,0.14c-0.36,0-0.71-0.04-1.06-0.13c-0.31-0.08-0.61-0.23-0.86-0.43c-0.25-0.21-0.43-0.48-0.54-0.78c-0.12-0.38-0.15-0.77-0.08-1.16c0.05-0.33,0.15-0.66,0.27-0.97c0.15-0.39,0.34-0.76,0.57-1.11l1.22,0.46c-0.09,0.18-0.17,0.34-0.24,0.47s-0.12,0.26-0.16,0.38c-0.04,0.12-0.08,0.24-0.11,0.36c-0.03,0.12-0.05,0.24-0.07,0.36c-0.04,0.22-0.02,0.44,0.04,0.65c0.05,0.17,0.15,0.32,0.28,0.43c0.13,0.11,0.29,0.18,0.46,0.22c0.17,0.04,0.34,0.06,0.52,0.06c0.39,0.02,0.77-0.1,1.06-0.35c0.28-0.3,0.45-0.68,0.48-1.09l0.9-6.82h1.45L22.93,90.68z"/>
	<path id="Path_8" d="M26.85,91.02c-0.03,0.2-0.05,0.35-0.07,0.44s-0.04,0.13-0.07,0.13c-0.31,0-0.62-0.02-0.93-0.07c-0.27-0.04-0.54-0.12-0.78-0.25c-0.21-0.11-0.39-0.28-0.5-0.5c-0.11-0.24-0.14-0.51-0.1-0.77l0.79-6.03h1.45l-0.73,5.58c-0.02,0.14-0.02,0.29,0.01,0.43c0.02,0.11,0.08,0.21,0.16,0.28c0.08,0.07,0.17,0.11,0.27,0.13c0.11,0.02,0.21,0.04,0.32,0.04c0.09,0,0.16,0.06,0.18,0.14C26.88,90.72,26.88,90.87,26.85,91.02"/>
	<path id="Path_9" d="M30.08,91.63c-0.3,0-0.59-0.04-0.87-0.13c-0.28-0.1-0.54-0.26-0.76-0.46c-0.17,0.19-0.37,0.34-0.6,0.43c-0.26,0.08-0.53,0.12-0.8,0.11h-0.34c-0.24,0.04-0.46-0.12-0.5-0.36c-0.01-0.06-0.01-0.13,0.01-0.19c0.01-0.16,0.07-0.32,0.16-0.46c0.06-0.09,0.17-0.15,0.28-0.16h0.28c0.11,0,0.23-0.02,0.33-0.07c0.09-0.05,0.16-0.11,0.22-0.2c0.06-0.09,0.11-0.19,0.14-0.29c0.04-0.11,0.08-0.24,0.12-0.41c0.07-0.37,0.19-0.72,0.36-1.05c0.16-0.3,0.36-0.58,0.61-0.82c0.24-0.23,0.52-0.41,0.82-0.53c0.32-0.12,0.65-0.19,0.99-0.18c0.36-0.01,0.71,0.05,1.04,0.18c0.28,0.11,0.52,0.28,0.72,0.5c0.18,0.22,0.31,0.48,0.37,0.76c0.07,0.31,0.08,0.64,0.04,0.95c-0.02,0.13-0.04,0.26-0.07,0.38c-0.03,0.12-0.06,0.23-0.09,0.33c0.08,0.15,0.21,0.26,0.36,0.33c0.16,0.08,0.35,0.13,0.53,0.12c0.09-0.01,0.17,0.06,0.18,0.15l0,0c0.02,0.14,0.02,0.29-0.01,0.43c-0.01,0.11-0.03,0.22-0.05,0.31c-0.01,0.06-0.02,0.12-0.04,0.18c-0.01,0.03-0.02,0.05-0.03,0.08c0,0.01-0.01,0.02-0.02,0.02c-0.12,0-0.25-0.01-0.37-0.03c-0.14-0.02-0.28-0.05-0.41-0.1c-0.14-0.05-0.27-0.13-0.4-0.21c-0.13-0.09-0.24-0.21-0.32-0.35c-0.25,0.25-0.56,0.44-0.89,0.57c-0.32,0.11-0.66,0.17-1.01,0.17 M30.43,88.07c-0.18,0-0.36,0.05-0.51,0.15c-0.16,0.11-0.29,0.25-0.4,0.41c-0.12,0.18-0.22,0.37-0.3,0.58c-0.09,0.23-0.16,0.47-0.21,0.72c0.15,0.16,0.33,0.3,0.53,0.4c0.18,0.09,0.38,0.13,0.58,0.13c0.28,0,0.55-0.1,0.74-0.3c0.21-0.21,0.34-0.49,0.37-0.79c0.07-0.32,0.02-0.65-0.13-0.94C30.96,88.19,30.7,88.06,30.43,88.07L30.43,88.07z"/>
	<path id="Path_10" d="M33.46,91.59c-0.14,0.01-0.29-0.04-0.39-0.14c-0.08-0.12-0.12-0.27-0.08-0.41c0.01-0.16,0.07-0.32,0.15-0.46c0.06-0.1,0.17-0.15,0.28-0.16h0.96c-0.1-0.19-0.17-0.39-0.22-0.59c-0.04-0.2-0.05-0.41-0.02-0.61c0.04-0.36,0.16-0.72,0.35-1.03c0.18-0.29,0.41-0.54,0.68-0.74c0.27-0.19,0.58-0.34,0.9-0.43c0.33-0.1,0.68-0.15,1.02-0.15c0.27,0,0.55,0.02,0.82,0.06c0.24,0.03,0.47,0.08,0.69,0.16l-0.39,1.1c-0.15-0.04-0.3-0.07-0.46-0.09c-0.21-0.03-0.41-0.05-0.62-0.05c-0.16,0-0.31,0.02-0.46,0.06c-0.16,0.04-0.32,0.1-0.46,0.18c-0.33,0.2-0.55,0.54-0.59,0.93c-0.07,0.32,0.04,0.66,0.27,0.89c0.28,0.23,0.64,0.34,1,0.32h1.43l-0.15,1.16L33.46,91.59z"/>
	<path id="Path_11" d="M46.01,91.59c-0.15,0-0.3-0.01-0.44-0.04c-0.15-0.02-0.3-0.06-0.45-0.11c-0.14-0.05-0.27-0.12-0.39-0.21c-0.12-0.08-0.23-0.2-0.3-0.33c-0.19,0.24-0.44,0.42-0.73,0.52c-0.34,0.11-0.69,0.17-1.05,0.16h-3.38l0.15-1.16h2.76c0.34,0.03,0.67-0.07,0.94-0.27c0.24-0.27,0.37-0.61,0.39-0.97l0.68-5.21h1.43l-0.72,5.46c-0.05,0.27,0.03,0.54,0.23,0.73c0.23,0.19,0.52,0.29,0.82,0.27c0.09-0.01,0.18,0.05,0.21,0.14c0.04,0.14,0.05,0.29,0.02,0.44c-0.02,0.16-0.04,0.32-0.08,0.48C46.1,91.56,46.06,91.6,46.01,91.59 M41.93,89.95H40.5l0.63-4.81h1.44L41.93,89.95L41.93,89.95z M42.99,84.47h-2.16l0.08-0.59h0.42c-0.07-0.16-0.1-0.33-0.08-0.51c0.03-0.3,0.18-0.58,0.41-0.78c0.25-0.2,0.57-0.31,0.9-0.3c0.1,0,0.19,0.01,0.29,0.02c0.11,0.01,0.22,0.04,0.33,0.07l-0.21,0.57c-0.15-0.05-0.31-0.08-0.46-0.07c-0.16-0.01-0.32,0.04-0.45,0.13c-0.11,0.09-0.18,0.22-0.19,0.36c-0.03,0.14,0.01,0.28,0.11,0.37c0.13,0.09,0.29,0.14,0.46,0.12h0.64L42.99,84.47L42.99,84.47z"/>
	<path id="Path_12" d="M45.98,90.43c0.18,0,0.37-0.02,0.55-0.06c0.13-0.03,0.25-0.09,0.36-0.17c0.09-0.08,0.16-0.18,0.2-0.3c0.05-0.14,0.08-0.28,0.09-0.43l0.73-5.51h1.43l-0.76,5.75c-0.03,0.28-0.11,0.56-0.22,0.83c-0.11,0.23-0.27,0.43-0.46,0.58c-0.23,0.17-0.48,0.28-0.76,0.35c-0.37,0.08-0.74,0.12-1.12,0.12c-0.24,0.04-0.46-0.13-0.5-0.37c-0.01-0.06-0.01-0.12,0.01-0.18c0.01-0.16,0.07-0.32,0.16-0.46c0.06-0.1,0.17-0.15,0.28-0.16"/>
	<path id="Path_13" d="M56.19,94.92c-0.2,0.01-0.39-0.07-0.52-0.21c-0.13-0.15-0.18-0.35-0.14-0.54c0.02-0.21,0.12-0.4,0.28-0.53c0.16-0.14,0.36-0.21,0.58-0.21c0.19-0.01,0.38,0.07,0.51,0.21c0.12,0.15,0.17,0.34,0.14,0.53c-0.02,0.21-0.12,0.4-0.28,0.54C56.59,94.86,56.39,94.93,56.19,94.92 M54.32,94.92c-0.2,0.01-0.39-0.07-0.52-0.21c-0.13-0.15-0.18-0.35-0.14-0.54c0.02-0.21,0.12-0.4,0.28-0.53c0.16-0.14,0.37-0.21,0.58-0.21c0.33-0.03,0.63,0.22,0.65,0.56c0,0.06,0,0.12-0.01,0.18c-0.02,0.21-0.12,0.4-0.28,0.54C54.72,94.85,54.53,94.93,54.32,94.92 M55.83,92.62c-0.53,0.01-1.07-0.04-1.59-0.14c-0.41-0.08-0.8-0.23-1.15-0.46c-0.29-0.19-0.52-0.47-0.66-0.8c-0.14-0.38-0.18-0.79-0.11-1.18c0.05-0.31,0.13-0.61,0.25-0.9c0.15-0.38,0.35-0.75,0.58-1.09l1.23,0.47c-0.14,0.25-0.26,0.51-0.37,0.78c-0.1,0.22-0.16,0.46-0.2,0.69c-0.09,0.42,0.08,0.85,0.44,1.08c0.52,0.28,1.1,0.4,1.68,0.36c0.32,0,0.64-0.02,0.96-0.06c0.25-0.03,0.49-0.09,0.73-0.17c0.17-0.05,0.32-0.13,0.46-0.24c0.09-0.06,0.16-0.16,0.18-0.26c0.02-0.12-0.07-0.26-0.25-0.41c-0.27-0.21-0.56-0.39-0.86-0.54c-0.36-0.17-0.67-0.42-0.93-0.72c-0.2-0.28-0.28-0.64-0.22-0.98c0.04-0.26,0.13-0.52,0.26-0.74c0.15-0.24,0.33-0.45,0.56-0.62c0.25-0.19,0.54-0.33,0.84-0.42c0.36-0.11,0.74-0.16,1.12-0.16c0.08,0,0.18,0,0.3,0.01c0.12,0.01,0.24,0.03,0.34,0.05c0.13,0.02,0.23,0.04,0.34,0.07c0.1,0.02,0.19,0.05,0.29,0.08l-0.38,1.06c-0.13-0.04-0.26-0.07-0.4-0.09c-0.17-0.03-0.35-0.05-0.53-0.05c-0.13,0-0.26,0.01-0.39,0.03c-0.14,0.02-0.28,0.06-0.41,0.11c-0.12,0.05-0.24,0.13-0.33,0.22c-0.09,0.09-0.15,0.22-0.16,0.35c-0.01,0.1,0.01,0.21,0.06,0.3c0.06,0.1,0.14,0.2,0.24,0.27c0.11,0.1,0.23,0.18,0.36,0.25c0.15,0.09,0.28,0.17,0.41,0.23c0.17,0.1,0.35,0.2,0.51,0.31c0.15,0.1,0.29,0.22,0.41,0.35c0.11,0.12,0.2,0.26,0.26,0.41c0.06,0.16,0.08,0.33,0.05,0.5c-0.04,0.31-0.16,0.59-0.35,0.84c-0.21,0.27-0.48,0.49-0.79,0.64c-0.38,0.19-0.78,0.33-1.19,0.41C56.89,92.57,56.36,92.62,55.83,92.62"/>
	<path id="Path_14" d="M62.44,90.43c0.28,0.02,0.56-0.06,0.79-0.21c0.21-0.2,0.33-0.47,0.34-0.75l0.04-0.27c0.07-0.29-0.03-0.6-0.25-0.8c-0.29-0.2-0.64-0.3-0.99-0.27h-1l0.15-1.16h1.29c0.38-0.01,0.75,0.04,1.12,0.15c0.28,0.08,0.53,0.23,0.74,0.42c0.18,0.17,0.31,0.39,0.38,0.63c0.07,0.26,0.09,0.53,0.05,0.79l-0.09,0.68c-0.03,0.56-0.25,1.08-0.62,1.5c-0.43,0.34-0.97,0.51-1.52,0.47h-2.61l0.15-1.16L62.44,90.43z"/>
	<path id="Path_15" d="M67.68,93.4c-0.23,0-0.45-0.02-0.67-0.05c-0.22-0.03-0.44-0.07-0.65-0.12l0.35-1.1c0.16,0.04,0.33,0.07,0.5,0.09c0.19,0.03,0.38,0.04,0.58,0.04c0.2,0,0.39-0.01,0.57-0.02c0.15-0.01,0.29-0.05,0.43-0.1c0.11-0.04,0.21-0.11,0.28-0.21c0.07-0.1,0.12-0.22,0.13-0.35h-1.01c-0.32,0-0.64-0.04-0.95-0.13c-0.26-0.08-0.5-0.21-0.71-0.4c-0.2-0.19-0.34-0.42-0.41-0.68c-0.08-0.32-0.1-0.65-0.05-0.98c0.04-0.33,0.14-0.65,0.28-0.94c0.14-0.3,0.34-0.58,0.57-0.81c0.25-0.24,0.55-0.44,0.87-0.57c0.36-0.14,0.75-0.21,1.14-0.21c0.3,0,0.6,0.05,0.88,0.15c0.26,0.09,0.49,0.24,0.69,0.43c0.2,0.19,0.34,0.44,0.42,0.7c0.09,0.32,0.11,0.66,0.06,0.98l-0.17,1.3h0.76c0.09,0,0.18,0.05,0.21,0.14c0.05,0.15,0.05,0.3,0.02,0.46c-0.01,0.16-0.04,0.31-0.09,0.46c-0.03,0.07-0.06,0.11-0.1,0.11h-0.98c-0.07,0.3-0.21,0.59-0.39,0.84c-0.17,0.23-0.39,0.42-0.64,0.57c-0.27,0.15-0.56,0.26-0.86,0.31C68.38,93.38,68.03,93.41,67.68,93.4 M68.76,88.05c-0.13,0-0.26,0.02-0.39,0.07c-0.13,0.05-0.26,0.12-0.36,0.21c-0.11,0.11-0.21,0.24-0.28,0.38c-0.09,0.18-0.14,0.36-0.16,0.56c-0.07,0.3-0.01,0.62,0.17,0.88c0.21,0.2,0.5,0.31,0.79,0.28h0.82l0.15-1.19c0.02-0.15,0.03-0.3,0.01-0.45c-0.01-0.13-0.05-0.26-0.11-0.38c-0.06-0.11-0.15-0.2-0.26-0.26C69.03,88.08,68.89,88.05,68.76,88.05"/>
	<path id="Path_16" d="M77.38,91.59h-1.49c-0.32,0.01-0.64-0.03-0.95-0.12c-0.22-0.06-0.43-0.16-0.62-0.29c-0.29,0.12-0.59,0.22-0.9,0.29c-0.33,0.08-0.67,0.11-1.01,0.12h-0.8c-0.15,0.01-0.29-0.04-0.39-0.15c-0.08-0.12-0.11-0.26-0.08-0.41c0.01-0.16,0.07-0.32,0.16-0.46c0.06-0.1,0.17-0.16,0.28-0.16h1.12c0.19,0,0.37-0.01,0.56-0.04c0.13-0.02,0.26-0.05,0.39-0.09c-0.14-0.17-0.27-0.32-0.39-0.46c-0.11-0.12-0.22-0.24-0.35-0.36c-0.1-0.1-0.23-0.21-0.37-0.32c-0.14-0.11-0.3-0.22-0.47-0.33c0.01-0.06,0.04-0.15,0.07-0.26l0.01-0.03c0.03-0.1,0.06-0.24,0.11-0.38c0.04-0.14,0.08-0.26,0.12-0.36c0.03-0.09,0.06-0.17,0.1-0.25c0.15-0.09,0.31-0.17,0.48-0.24c0.2-0.08,0.41-0.16,0.61-0.22c0.22-0.07,0.45-0.12,0.67-0.16c0.23-0.04,0.45-0.06,0.68-0.06c0.32,0,0.64,0.03,0.95,0.1c0.27,0.05,0.52,0.16,0.75,0.3c0.2,0.12,0.36,0.29,0.47,0.5c0.11,0.22,0.14,0.46,0.1,0.7C77.15,88.66,77.09,88.84,77,89c-0.1,0.18-0.22,0.35-0.36,0.51c-0.15,0.17-0.32,0.33-0.5,0.47c-0.19,0.15-0.39,0.28-0.6,0.39c0.11,0.03,0.23,0.05,0.35,0.05c0.15,0.01,0.28,0.01,0.37,0.01h1.08c0.09,0,0.17,0.05,0.21,0.13c0.05,0.15,0.05,0.3,0.02,0.46c-0.02,0.16-0.04,0.31-0.08,0.47C77.46,91.56,77.43,91.59,77.38,91.59 M74.75,88.05c-0.13,0-0.26,0.01-0.38,0.03c-0.12,0.02-0.25,0.04-0.37,0.07c-0.11,0.02-0.21,0.05-0.31,0.09c-0.07,0.02-0.14,0.06-0.21,0.09c0.25,0.21,0.48,0.45,0.69,0.72c0.18,0.23,0.35,0.48,0.5,0.73c0.12-0.07,0.24-0.14,0.35-0.22c0.12-0.08,0.22-0.18,0.32-0.28c0.09-0.09,0.18-0.2,0.24-0.31c0.06-0.1,0.1-0.21,0.12-0.33c0.01-0.07,0-0.13-0.03-0.2c-0.03-0.08-0.08-0.14-0.15-0.19c-0.09-0.07-0.19-0.12-0.3-0.14C75.06,88.07,74.9,88.05,74.75,88.05"/>
	<path id="Path_17" d="M80.89,91.59c-0.31,0.01-0.62-0.05-0.9-0.17c-0.22-0.09-0.4-0.26-0.5-0.47c-0.22,0.23-0.49,0.4-0.8,0.48c-0.43,0.12-0.87,0.17-1.31,0.16c-0.24,0.04-0.46-0.13-0.49-0.36c-0.01-0.06-0.01-0.12,0.01-0.18c0.01-0.16,0.07-0.32,0.16-0.46c0.06-0.09,0.17-0.15,0.28-0.16c0.3,0.02,0.61-0.05,0.87-0.2c0.22-0.19,0.35-0.46,0.36-0.75l0.21-1.62h1.44l-0.23,1.74c-0.01,0.1-0.02,0.21-0.01,0.32c0.01,0.09,0.03,0.18,0.08,0.26c0.05,0.08,0.13,0.14,0.21,0.18c0.12,0.05,0.25,0.07,0.39,0.07c0.2,0.02,0.4-0.05,0.56-0.18c0.17-0.23,0.26-0.5,0.26-0.78l0.21-1.62h1.43L82.9,89.6c-0.01,0.1-0.02,0.21-0.01,0.32c0.01,0.09,0.03,0.18,0.08,0.26c0.05,0.08,0.12,0.15,0.21,0.18c0.12,0.05,0.26,0.07,0.39,0.07c0.2,0.02,0.4-0.05,0.56-0.18c0.16-0.23,0.25-0.49,0.26-0.77l0.33-2.52h1.43l-0.34,2.48c-0.05,0.26,0.03,0.53,0.22,0.72c0.23,0.2,0.53,0.3,0.83,0.28c0.09-0.01,0.18,0.05,0.21,0.13c0.04,0.14,0.05,0.29,0.02,0.44c-0.02,0.16-0.05,0.32-0.08,0.48c-0.03,0.08-0.06,0.11-0.11,0.11c-0.14,0-0.29-0.01-0.43-0.03c-0.15-0.02-0.3-0.06-0.45-0.11c-0.14-0.05-0.28-0.12-0.41-0.21c-0.12-0.08-0.22-0.19-0.3-0.32c-0.17,0.22-0.4,0.39-0.66,0.5c-0.28,0.11-0.58,0.17-0.88,0.17c-0.31,0.01-0.61-0.05-0.89-0.17c-0.22-0.09-0.39-0.26-0.5-0.47C82.03,91.38,81.47,91.62,80.89,91.59"/>
	<path id="Path_18" d="M86.88,90.43c0.18,0,0.37-0.02,0.55-0.06c0.13-0.03,0.25-0.09,0.36-0.17c0.09-0.08,0.16-0.18,0.2-0.3c0.05-0.14,0.08-0.28,0.09-0.43l0.73-5.51h1.43l-0.76,5.75c-0.03,0.28-0.11,0.56-0.22,0.83c-0.11,0.23-0.27,0.43-0.46,0.58c-0.23,0.17-0.48,0.28-0.76,0.35c-0.37,0.08-0.74,0.12-1.12,0.12c-0.24,0.04-0.46-0.13-0.5-0.37c-0.01-0.06-0.01-0.12,0.01-0.18c0.01-0.16,0.07-0.32,0.16-0.46c0.06-0.1,0.17-0.16,0.28-0.16"/>
	<path id="Path_19" d="M93.09,83.97l-1,7.62h-1.45l1-7.62H93.09z"/>
	<path id="Path_20" d="M96.13,93.4c-0.19,0-0.38-0.01-0.58-0.04c-0.14-0.02-0.28-0.05-0.42-0.09l0.32-1.11c0.08,0.01,0.15,0.02,0.22,0.03h0.02c0.08,0.01,0.15,0.02,0.23,0.02c0.22,0.02,0.44-0.07,0.6-0.23c0.16-0.21,0.25-0.46,0.27-0.73l0.56-4.3h1.45l-0.46,3.47h0.89c0.09,0,0.18,0.05,0.21,0.14c0.04,0.15,0.05,0.3,0.02,0.46c-0.02,0.15-0.04,0.31-0.09,0.46c-0.03,0.08-0.06,0.11-0.1,0.11H98.2c-0.05,0.32-0.15,0.63-0.3,0.91c-0.12,0.22-0.29,0.41-0.49,0.56c-0.18,0.13-0.39,0.23-0.62,0.28C96.58,93.39,96.36,93.41,96.13,93.4 M98.26,85.96c-0.35,0.03-0.65-0.23-0.67-0.58c0-0.06,0-0.11,0.01-0.17c0.02-0.21,0.13-0.4,0.28-0.53c0.16-0.14,0.36-0.21,0.57-0.21c0.19-0.01,0.38,0.07,0.51,0.21c0.12,0.15,0.17,0.34,0.14,0.53c-0.02,0.21-0.12,0.4-0.28,0.54C98.67,85.89,98.47,85.96,98.26,85.96"/>
	<path id="Path_21" d="M99.28,91.59c-0.24,0.04-0.46-0.13-0.5-0.36c-0.01-0.06-0.01-0.12,0.01-0.18c0.01-0.16,0.07-0.31,0.15-0.45c0.06-0.1,0.17-0.17,0.29-0.17h3.11c0.29,0.02,0.57-0.06,0.8-0.23c0.19-0.2,0.31-0.46,0.33-0.74l0.04-0.27c0.09-0.72-0.29-1.08-1.16-1.08h-2.29l0.15-1.16l3.26-2.98l0.86,0.89l-2.32,2.09h0.84c0.36-0.01,0.71,0.04,1.06,0.15c0.26,0.08,0.5,0.22,0.69,0.42c0.17,0.18,0.29,0.39,0.34,0.63c0.06,0.26,0.07,0.53,0.03,0.79l-0.09,0.68c-0.03,0.56-0.25,1.09-0.63,1.5c-0.43,0.34-0.97,0.5-1.51,0.46L99.28,91.59z"/>
	<path id="Path_22" d="M105.73,93.4c-0.19,0-0.38-0.01-0.58-0.04c-0.14-0.02-0.28-0.05-0.42-0.09l0.33-1.11c0.08,0.02,0.16,0.03,0.24,0.04c0.08,0.01,0.15,0.02,0.23,0.02c0.22,0.02,0.44-0.07,0.6-0.23c0.16-0.21,0.26-0.47,0.27-0.74l0.57-4.29h1.45l-0.46,3.47h0.89c0.09,0,0.18,0.05,0.21,0.14c0.04,0.15,0.05,0.3,0.02,0.46c-0.02,0.15-0.04,0.31-0.09,0.46c-0.03,0.08-0.06,0.11-0.1,0.11h-1.08c-0.05,0.32-0.15,0.63-0.3,0.91c-0.12,0.22-0.29,0.41-0.49,0.56c-0.19,0.13-0.4,0.23-0.62,0.28c-0.22,0.05-0.44,0.07-0.67,0.07"/>
	<path id="Path_23" d="M112.25,91.63c-0.3,0-0.59-0.04-0.87-0.13c-0.28-0.1-0.54-0.26-0.76-0.46c-0.17,0.19-0.37,0.34-0.61,0.43c-0.26,0.08-0.53,0.12-0.8,0.11h-0.34c-0.14,0.01-0.29-0.04-0.39-0.14c-0.09-0.12-0.12-0.27-0.09-0.41c0.01-0.16,0.07-0.32,0.15-0.46c0.06-0.1,0.17-0.15,0.28-0.16h0.28c0.12,0,0.23-0.02,0.33-0.07c0.09-0.05,0.16-0.11,0.21-0.2c0.06-0.09,0.11-0.19,0.14-0.29c0.04-0.12,0.08-0.26,0.12-0.41c0.07-0.36,0.2-0.72,0.36-1.05c0.16-0.3,0.36-0.58,0.6-0.82c0.24-0.23,0.51-0.41,0.82-0.53c0.32-0.12,0.65-0.19,0.99-0.18c0.36-0.01,0.71,0.05,1.04,0.18c0.28,0.11,0.52,0.28,0.72,0.5c0.18,0.22,0.31,0.48,0.37,0.76c0.07,0.31,0.08,0.64,0.03,0.95c-0.02,0.13-0.04,0.26-0.07,0.38c-0.03,0.11-0.06,0.22-0.09,0.33c0.08,0.15,0.21,0.26,0.36,0.33c0.16,0.08,0.35,0.13,0.53,0.12c0.09-0.01,0.17,0.06,0.18,0.15c0.02,0.14,0.02,0.29-0.01,0.43c-0.02,0.15-0.03,0.24-0.05,0.31c-0.01,0.07-0.03,0.14-0.04,0.18c-0.01,0.03-0.02,0.05-0.03,0.08c0,0.01-0.01,0.02-0.02,0.02c-0.12,0-0.25-0.01-0.37-0.03c-0.14-0.02-0.28-0.05-0.41-0.1c-0.14-0.05-0.27-0.13-0.4-0.21c-0.13-0.09-0.24-0.21-0.32-0.35c-0.25,0.25-0.56,0.44-0.89,0.57c-0.32,0.11-0.66,0.17-1,0.17 M112.61,88.07c-0.18,0-0.36,0.05-0.51,0.15c-0.16,0.11-0.29,0.25-0.4,0.41c-0.12,0.18-0.22,0.37-0.3,0.58c-0.09,0.23-0.15,0.47-0.2,0.72c0.15,0.16,0.33,0.3,0.53,0.4c0.18,0.09,0.38,0.13,0.58,0.13c0.28,0,0.55-0.11,0.74-0.3c0.21-0.21,0.34-0.49,0.37-0.79c0.06-0.32,0.02-0.65-0.14-0.94C113.14,88.19,112.88,88.06,112.61,88.07L112.61,88.07z"/>
	<path id="Path_24" d="M115.6,90.43c0.18,0,0.37-0.02,0.55-0.06c0.13-0.03,0.25-0.09,0.36-0.17c0.09-0.08,0.16-0.18,0.2-0.3c0.05-0.14,0.08-0.28,0.09-0.43l0.73-5.51h1.43l-0.75,5.75c-0.03,0.29-0.11,0.56-0.22,0.83c-0.11,0.23-0.26,0.43-0.46,0.58c-0.23,0.17-0.48,0.28-0.76,0.35c-0.37,0.08-0.74,0.12-1.12,0.12c-0.24,0.04-0.46-0.13-0.5-0.37c-0.01-0.06-0.01-0.12,0.01-0.18c0.01-0.16,0.07-0.32,0.15-0.46c0.06-0.1,0.17-0.16,0.28-0.16"/>
	<path id="Path_25" d="M121.8,83.97l-1,7.62h-1.45l1-7.62H121.8z"/>
	<path id="Path_26" d="M12.82,97.97c-0.25-0.1-0.52-0.17-0.78-0.21c-0.26-0.04-0.53-0.06-0.79-0.07c-0.15,0-0.3,0.01-0.46,0.04c-0.14,0.02-0.28,0.07-0.4,0.13c-0.12,0.06-0.22,0.14-0.3,0.24c-0.08,0.11-0.14,0.24-0.15,0.38c-0.02,0.12-0.01,0.24,0.04,0.35c0.05,0.11,0.13,0.21,0.22,0.28c0.13,0.1,0.26,0.19,0.41,0.26c0.17,0.09,0.37,0.18,0.6,0.28c0.27,0.11,0.54,0.24,0.79,0.39c0.22,0.12,0.43,0.28,0.6,0.47c0.16,0.17,0.29,0.38,0.35,0.61c0.07,0.27,0.08,0.56,0.04,0.84c-0.04,0.35-0.16,0.68-0.35,0.96c-0.19,0.28-0.43,0.51-0.71,0.68c-0.29,0.18-0.61,0.32-0.94,0.4c-0.35,0.09-0.71,0.13-1.07,0.13c-0.37,0-0.74-0.03-1.1-0.09c-0.39-0.06-0.77-0.16-1.14-0.29l0.44-1.24c0.61,0.25,1.26,0.39,1.91,0.39c0.34,0.02,0.68-0.05,0.99-0.21c0.24-0.14,0.39-0.38,0.42-0.65c0.02-0.13,0-0.25-0.04-0.37c-0.05-0.12-0.13-0.22-0.23-0.3c-0.13-0.11-0.28-0.2-0.43-0.28c-0.2-0.1-0.41-0.2-0.62-0.28c-0.27-0.11-0.53-0.24-0.77-0.38c-0.22-0.13-0.41-0.29-0.58-0.47c-0.15-0.17-0.27-0.37-0.34-0.59c-0.07-0.25-0.09-0.5-0.05-0.76c0.04-0.35,0.17-0.69,0.36-0.98c0.19-0.27,0.43-0.5,0.7-0.67c0.28-0.17,0.59-0.3,0.91-0.38c0.31-0.08,0.64-0.12,0.96-0.12c0.35,0,0.7,0.02,1.05,0.07c0.3,0.04,0.6,0.11,0.89,0.2L12.82,97.97z"/>
	<path id="Path_27" d="M15.59,104.14c-0.24,0-0.48-0.03-0.72-0.09c-0.22-0.06-0.43-0.16-0.62-0.3c-0.18-0.13-0.31-0.32-0.39-0.52c-0.09-0.26-0.11-0.53-0.07-0.79c0.04-0.35,0.17-0.69,0.4-0.97c0.23-0.26,0.52-0.45,0.84-0.57c0.38-0.14,0.77-0.23,1.18-0.27c0.39-0.04,0.78-0.06,1.17-0.06h0.18l0.02-0.13c0.05-0.25-0.03-0.5-0.22-0.67c-0.26-0.18-0.58-0.27-0.9-0.24c-0.23,0-0.45,0.02-0.67,0.06c-0.27,0.05-0.54,0.12-0.8,0.21l-0.14-1.06c0.6-0.2,1.23-0.31,1.86-0.32c0.69-0.07,1.38,0.13,1.94,0.55c0.39,0.41,0.55,1,0.41,1.55l-0.3,2.26c-0.03,0.21-0.05,0.42-0.07,0.65c-0.02,0.2-0.02,0.4-0.01,0.6h-1.33c-0.02-0.11-0.03-0.22-0.03-0.34v-0.34h-0.02c-0.18,0.25-0.43,0.45-0.71,0.58C16.28,104.07,15.94,104.14,15.59,104.14 M17.23,101.48c-0.24,0-0.48,0.01-0.72,0.04c-0.21,0.02-0.42,0.07-0.61,0.13c-0.17,0.06-0.32,0.15-0.44,0.28c-0.11,0.12-0.18,0.28-0.2,0.45c-0.04,0.2,0.02,0.4,0.15,0.55c0.16,0.14,0.37,0.21,0.58,0.2c0.19,0,0.39-0.03,0.57-0.1c0.16-0.07,0.31-0.16,0.43-0.29c0.12-0.12,0.21-0.25,0.28-0.4c0.06-0.15,0.11-0.3,0.13-0.46l0.04-0.39L17.23,101.48z"/>
	<path id="Path_28" d="M23.79,104.02l0.09-0.74h-0.02c-0.18,0.28-0.45,0.5-0.76,0.64c-0.32,0.15-0.68,0.22-1.03,0.22c-0.29,0-0.57-0.04-0.84-0.14c-0.23-0.08-0.43-0.22-0.6-0.4c-0.16-0.18-0.27-0.39-0.33-0.62c-0.07-0.27-0.08-0.55-0.04-0.82l0.47-3.61h1.5l-0.4,3.06c-0.03,0.2-0.04,0.39-0.03,0.59c0,0.16,0.04,0.31,0.11,0.45c0.06,0.12,0.16,0.23,0.28,0.29c0.15,0.07,0.32,0.11,0.49,0.1c0.15,0,0.3-0.03,0.44-0.08c0.15-0.06,0.29-0.14,0.41-0.25c0.14-0.13,0.25-0.29,0.34-0.47c0.11-0.23,0.17-0.47,0.2-0.72l0.39-2.97h1.5l-0.72,5.47L23.79,104.02z"/>
	<path id="Path_29" d="M28.81,104.14c-0.34,0.01-0.68-0.07-0.98-0.22c-0.27-0.14-0.5-0.35-0.66-0.61c-0.17-0.28-0.28-0.59-0.33-0.91c-0.06-0.37-0.06-0.75-0.01-1.12c0.05-0.39,0.15-0.77,0.31-1.13c0.14-0.33,0.34-0.64,0.58-0.91c0.23-0.25,0.52-0.46,0.83-0.61c0.33-0.15,0.69-0.23,1.05-0.22c0.31,0,0.61,0.05,0.89,0.17c0.27,0.12,0.51,0.31,0.66,0.57h0.02l0.36-2.76h1.5l-1,7.62h-1.47l0.09-0.7h-0.02c-0.24,0.28-0.53,0.49-0.87,0.63C29.46,104.07,29.13,104.13,28.81,104.14 M29.83,99.52c-0.2,0-0.4,0.04-0.58,0.13c-0.18,0.09-0.33,0.22-0.45,0.37c-0.13,0.17-0.23,0.36-0.3,0.56c-0.08,0.22-0.13,0.46-0.16,0.69c-0.03,0.23-0.04,0.46-0.02,0.69c0.02,0.19,0.07,0.38,0.16,0.56c0.08,0.15,0.2,0.28,0.35,0.37c0.17,0.09,0.36,0.14,0.55,0.14c0.21,0,0.42-0.04,0.6-0.14c0.18-0.09,0.35-0.22,0.48-0.37c0.14-0.17,0.26-0.35,0.34-0.56c0.09-0.23,0.15-0.47,0.18-0.71c0.04-0.23,0.04-0.46,0-0.69c-0.03-0.2-0.1-0.39-0.2-0.56c-0.1-0.15-0.23-0.28-0.39-0.36C30.21,99.55,30.01,99.51,29.83,99.52L29.83,99.52z"/>
	<path id="Path_30" d="M35.01,104.02h-1.5l0.72-5.47h1.5L35.01,104.02L35.01,104.02z M35.84,97.7h-1.5l0.17-1.27h1.5L35.84,97.7z"/>
	<path id="Path_31" d="M42.52,104.01h-3.21l0.97-7.4h3.14c0.3,0,0.61,0.03,0.9,0.1c0.25,0.06,0.49,0.17,0.69,0.33c0.19,0.15,0.33,0.35,0.41,0.58c0.09,0.27,0.11,0.57,0.06,0.85c-0.04,0.41-0.22,0.8-0.5,1.11c-0.26,0.26-0.58,0.46-0.94,0.58v0.02c0.18,0.05,0.36,0.12,0.52,0.22c0.15,0.09,0.28,0.21,0.39,0.34c0.12,0.15,0.2,0.32,0.24,0.51c0.05,0.23,0.06,0.47,0.02,0.71c-0.04,0.27-0.12,0.54-0.24,0.79c-0.13,0.25-0.31,0.47-0.53,0.65c-0.24,0.2-0.52,0.35-0.82,0.46C43.27,103.97,42.9,104.02,42.52,104.01 M41.27,100.85l-0.26,1.96h1.24c0.18,0,0.36-0.01,0.54-0.04c0.15-0.02,0.3-0.07,0.44-0.15c0.13-0.07,0.24-0.18,0.31-0.3c0.09-0.15,0.14-0.31,0.16-0.48c0.03-0.16,0.01-0.33-0.05-0.48c-0.06-0.13-0.15-0.23-0.27-0.3c-0.14-0.08-0.3-0.13-0.46-0.16c-0.2-0.03-0.4-0.05-0.6-0.05L41.27,100.85z M41.67,97.82l-0.24,1.8h1.09c0.34,0.02,0.68-0.05,0.98-0.21c0.24-0.16,0.4-0.42,0.43-0.72c0.03-0.15,0.01-0.3-0.04-0.44c-0.05-0.11-0.13-0.2-0.23-0.26c-0.11-0.07-0.24-0.11-0.37-0.13c-0.14-0.03-0.29-0.04-0.44-0.04H41.67z"/>
	<path id="Path_32" d="M49.91,104.02l0.09-0.74h-0.02c-0.18,0.28-0.45,0.5-0.76,0.64c-0.32,0.15-0.68,0.22-1.03,0.22c-0.29,0-0.57-0.04-0.84-0.14c-0.23-0.08-0.43-0.22-0.6-0.4c-0.16-0.18-0.27-0.39-0.33-0.62c-0.07-0.27-0.08-0.55-0.04-0.82l0.47-3.61h1.5l-0.4,3.06c-0.03,0.2-0.04,0.39-0.03,0.59c0,0.16,0.04,0.31,0.11,0.45c0.06,0.12,0.16,0.23,0.28,0.29c0.15,0.07,0.32,0.11,0.49,0.1c0.15,0,0.3-0.03,0.44-0.08c0.15-0.06,0.29-0.14,0.41-0.25c0.14-0.13,0.26-0.29,0.34-0.47c0.11-0.23,0.17-0.47,0.2-0.72l0.39-2.97h1.5l-0.72,5.47L49.91,104.02z"/>
	<path id="Path_33" d="M56.82,99.81c-0.25-0.1-0.51-0.18-0.78-0.23c-0.23-0.04-0.47-0.06-0.7-0.06c-0.19-0.01-0.37,0.03-0.54,0.1c-0.14,0.06-0.24,0.19-0.26,0.35c-0.02,0.15,0.04,0.3,0.17,0.39c0.24,0.15,0.5,0.26,0.77,0.33c0.26,0.08,0.5,0.18,0.74,0.3c0.2,0.09,0.38,0.22,0.54,0.37c0.14,0.13,0.24,0.3,0.3,0.48c0.06,0.21,0.07,0.42,0.04,0.63c-0.03,0.29-0.14,0.56-0.31,0.79c-0.16,0.21-0.37,0.39-0.6,0.51c-0.24,0.13-0.51,0.23-0.78,0.28c-0.27,0.06-0.56,0.09-0.84,0.09c-0.36,0-0.72-0.04-1.07-0.1c-0.33-0.06-0.66-0.15-0.97-0.27l0.44-1.12c0.29,0.13,0.6,0.23,0.92,0.3c0.27,0.06,0.54,0.09,0.82,0.1c0.23,0.01,0.46-0.03,0.68-0.11c0.16-0.07,0.26-0.21,0.28-0.38c0.02-0.16-0.06-0.32-0.21-0.4c-0.27-0.16-0.56-0.28-0.87-0.36c-0.46-0.12-0.87-0.36-1.21-0.69c-0.24-0.27-0.34-0.63-0.28-0.98c0.07-0.54,0.38-1.02,0.85-1.3c0.23-0.14,0.48-0.24,0.74-0.31c0.26-0.06,0.53-0.09,0.8-0.09c0.31,0,0.61,0.03,0.92,0.08c0.3,0.05,0.59,0.12,0.87,0.23L56.82,99.81z"/>
	<path id="Path_34" d="M59.54,104.02h-1.5l0.72-5.47h1.5L59.54,104.02L59.54,104.02z M60.37,97.7h-1.5l0.17-1.27h1.5L60.37,97.7z"/>
	<path id="Path_35" d="M63.2,98.54l-0.09,0.74h0.02c0.19-0.28,0.45-0.51,0.76-0.64c0.33-0.15,0.68-0.22,1.04-0.22c0.29-0.01,0.57,0.04,0.84,0.14c0.23,0.08,0.43,0.22,0.6,0.4c0.16,0.18,0.27,0.4,0.33,0.63c0.06,0.27,0.08,0.54,0.04,0.81l-0.47,3.61h-1.5l0.4-3.06c0.03-0.2,0.04-0.4,0.03-0.61c0-0.16-0.04-0.31-0.1-0.46c-0.06-0.12-0.16-0.22-0.28-0.28c-0.15-0.07-0.32-0.11-0.49-0.1c-0.15,0-0.3,0.03-0.44,0.08c-0.15,0.06-0.3,0.15-0.42,0.26c-0.15,0.14-0.26,0.3-0.35,0.48c-0.11,0.22-0.17,0.46-0.2,0.71l-0.39,2.97h-1.5l0.72-5.47L63.2,98.54z"/>
	<path id="Path_36" d="M70.55,104.14c-0.44,0.01-0.89-0.06-1.31-0.21c-0.35-0.12-0.66-0.32-0.91-0.59c-0.23-0.26-0.4-0.56-0.49-0.9c-0.1-0.38-0.12-0.77-0.06-1.16c0.05-0.4,0.17-0.79,0.35-1.15c0.17-0.34,0.4-0.65,0.67-0.91c0.28-0.26,0.6-0.46,0.96-0.6c0.38-0.14,0.79-0.21,1.19-0.21c0.36-0.01,0.72,0.06,1.06,0.19c0.28,0.12,0.53,0.31,0.71,0.55c0.19,0.25,0.31,0.54,0.37,0.85c0.07,0.37,0.07,0.75,0.02,1.12l-0.08,0.59h-3.82c-0.01,0.21,0.03,0.43,0.12,0.62c0.08,0.16,0.2,0.3,0.34,0.4c0.16,0.11,0.34,0.19,0.53,0.23c0.22,0.05,0.44,0.08,0.67,0.08c0.23,0,0.45-0.02,0.68-0.05c0.23-0.03,0.46-0.08,0.68-0.15l0.03,1.08c-0.26,0.07-0.53,0.12-0.8,0.16C71.16,104.13,70.85,104.15,70.55,104.14 M70.8,99.42c-0.34,0-0.67,0.12-0.92,0.35c-0.27,0.24-0.45,0.57-0.53,0.92h2.42c0.07-0.32,0-0.65-0.18-0.92C71.39,99.53,71.1,99.4,70.8,99.42"/>
	<path id="Path_37" d="M77.88,99.81c-0.25-0.1-0.51-0.18-0.78-0.23c-0.23-0.04-0.47-0.06-0.7-0.06c-0.19-0.01-0.37,0.03-0.54,0.1c-0.14,0.06-0.24,0.19-0.26,0.35c-0.02,0.15,0.04,0.3,0.17,0.39c0.24,0.15,0.5,0.26,0.77,0.33c0.26,0.08,0.5,0.18,0.74,0.3c0.2,0.09,0.38,0.22,0.54,0.37c0.14,0.13,0.24,0.3,0.3,0.48c0.06,0.21,0.07,0.42,0.04,0.63c-0.03,0.29-0.14,0.56-0.31,0.79c-0.16,0.21-0.37,0.39-0.6,0.51c-0.24,0.13-0.51,0.23-0.78,0.28c-0.27,0.06-0.56,0.09-0.84,0.09c-0.36,0-0.72-0.04-1.07-0.1c-0.33-0.06-0.66-0.15-0.97-0.27l0.44-1.12c0.29,0.13,0.6,0.23,0.92,0.3c0.27,0.06,0.54,0.09,0.82,0.1c0.23,0.01,0.46-0.03,0.68-0.11c0.16-0.07,0.26-0.21,0.28-0.38c0.02-0.16-0.06-0.32-0.21-0.4c-0.27-0.16-0.56-0.28-0.86-0.36c-0.46-0.12-0.87-0.36-1.21-0.69c-0.24-0.27-0.34-0.63-0.28-0.98c0.07-0.54,0.38-1.02,0.85-1.3c0.23-0.14,0.48-0.24,0.74-0.31c0.26-0.06,0.53-0.09,0.8-0.09c0.31,0,0.61,0.03,0.92,0.08c0.3,0.05,0.59,0.12,0.87,0.23L77.88,99.81z"/>
	<path id="Path_38" d="M82.94,99.81c-0.25-0.1-0.51-0.18-0.78-0.23c-0.23-0.04-0.47-0.06-0.7-0.06c-0.19-0.01-0.37,0.03-0.54,0.1c-0.14,0.06-0.24,0.19-0.26,0.35c-0.02,0.15,0.04,0.3,0.17,0.39c0.24,0.15,0.5,0.26,0.77,0.33c0.26,0.08,0.5,0.18,0.74,0.3c0.2,0.09,0.38,0.22,0.54,0.37c0.14,0.13,0.24,0.3,0.3,0.48c0.06,0.21,0.07,0.42,0.04,0.63c-0.03,0.29-0.14,0.56-0.31,0.79c-0.16,0.21-0.37,0.39-0.6,0.51c-0.24,0.13-0.51,0.23-0.78,0.28c-0.27,0.06-0.56,0.09-0.84,0.09c-0.36,0-0.72-0.04-1.07-0.1c-0.33-0.06-0.66-0.15-0.97-0.27l0.44-1.12c0.29,0.13,0.6,0.23,0.92,0.3c0.27,0.06,0.54,0.09,0.82,0.1c0.23,0.01,0.46-0.03,0.68-0.11c0.16-0.07,0.26-0.21,0.28-0.38c0.02-0.16-0.06-0.32-0.21-0.4c-0.27-0.16-0.56-0.28-0.87-0.36c-0.45-0.13-0.87-0.36-1.21-0.69c-0.24-0.27-0.34-0.63-0.28-0.98c0.04-0.28,0.14-0.54,0.29-0.77c0.15-0.21,0.34-0.39,0.56-0.53c0.23-0.14,0.48-0.24,0.74-0.31c0.26-0.06,0.53-0.09,0.8-0.09c0.31,0,0.61,0.03,0.92,0.08c0.3,0.05,0.59,0.12,0.87,0.23L82.94,99.81z"/>
	<path id="Path_39" d="M92.82,97.96c-0.21-0.08-0.42-0.14-0.63-0.18c-0.23-0.05-0.46-0.07-0.69-0.07c-0.37-0.01-0.74,0.07-1.09,0.21c-0.31,0.13-0.59,0.33-0.83,0.57c-0.23,0.24-0.42,0.53-0.56,0.84c-0.15,0.32-0.24,0.67-0.29,1.02c-0.05,0.32-0.04,0.65,0.03,0.98c0.05,0.3,0.17,0.58,0.35,0.83c0.18,0.24,0.41,0.44,0.68,0.57c0.32,0.15,0.67,0.22,1.02,0.21c0.26,0,0.52-0.02,0.78-0.07c0.23-0.05,0.46-0.12,0.68-0.21l0.11,1.17c-0.29,0.11-0.6,0.2-0.91,0.24c-0.33,0.05-0.66,0.08-1,0.08c-0.52,0.01-1.03-0.08-1.51-0.28c-0.42-0.17-0.8-0.44-1.09-0.79c-0.29-0.35-0.5-0.76-0.6-1.2c-0.12-0.5-0.14-1.02-0.06-1.53c0.07-0.54,0.22-1.06,0.46-1.55c0.23-0.46,0.54-0.87,0.91-1.22c0.38-0.35,0.83-0.62,1.31-0.8c0.53-0.19,1.08-0.29,1.64-0.28c0.32,0,0.63,0.02,0.94,0.07c0.27,0.04,0.54,0.12,0.79,0.22L92.82,97.96z"/>
	<path id="Path_40" d="M96.12,104.14c-0.44,0.01-0.88-0.06-1.3-0.21c-0.35-0.12-0.66-0.32-0.92-0.59c-0.23-0.25-0.4-0.56-0.49-0.9c-0.1-0.38-0.12-0.77-0.06-1.16c0.05-0.4,0.17-0.79,0.35-1.15c0.17-0.34,0.4-0.65,0.67-0.91c0.28-0.26,0.6-0.46,0.96-0.6c0.38-0.14,0.79-0.21,1.19-0.21c0.36-0.01,0.72,0.06,1.06,0.19c0.28,0.12,0.53,0.31,0.71,0.55c0.19,0.25,0.31,0.54,0.37,0.85c0.07,0.37,0.07,0.75,0.02,1.12l-0.08,0.59h-3.82c-0.01,0.21,0.03,0.43,0.12,0.62c0.08,0.16,0.2,0.3,0.34,0.4c0.16,0.11,0.34,0.19,0.53,0.23c0.22,0.05,0.44,0.08,0.67,0.08c0.23,0,0.45-0.02,0.68-0.05c0.23-0.03,0.46-0.08,0.68-0.15l0.03,1.08c-0.26,0.07-0.53,0.12-0.8,0.16C96.73,104.13,96.43,104.15,96.12,104.14 M96.37,99.42c-0.34,0-0.67,0.12-0.92,0.35c-0.27,0.24-0.45,0.57-0.53,0.92h2.42c0.07-0.32,0-0.65-0.18-0.92C96.97,99.53,96.67,99.4,96.37,99.42"/>
	<path id="Path_41" d="M101.66,98.54l-0.09,0.74h0.02c0.18-0.28,0.45-0.5,0.76-0.64c0.33-0.15,0.68-0.22,1.04-0.22c0.29-0.01,0.57,0.04,0.84,0.14c0.23,0.08,0.43,0.22,0.6,0.4c0.16,0.18,0.27,0.4,0.33,0.63c0.06,0.27,0.08,0.54,0.04,0.81l-0.47,3.61h-1.5l0.4-3.06c0.03-0.2,0.04-0.4,0.03-0.61c0-0.16-0.04-0.31-0.1-0.46c-0.06-0.12-0.16-0.22-0.28-0.28c-0.15-0.07-0.32-0.11-0.49-0.1c-0.32,0-0.62,0.12-0.86,0.34c-0.15,0.14-0.26,0.3-0.35,0.48c-0.1,0.22-0.17,0.46-0.2,0.71l-0.39,2.97h-1.5l0.72-5.47L101.66,98.54z"/>
	<path id="Path_42" d="M106.23,98.54h0.85l0.19-1.45h1.5l-0.19,1.45h1.16l-0.15,1.11h-1.16l-0.32,2.45c-0.02,0.15-0.03,0.3-0.03,0.46c-0.01,0.09,0.02,0.18,0.06,0.26c0.04,0.06,0.1,0.1,0.17,0.11c0.1,0.02,0.21,0.03,0.32,0.03c0.08,0,0.17,0,0.25-0.01c0.07-0.01,0.16-0.02,0.25-0.03l-0.14,1.1c-0.14,0.01-0.3,0.03-0.47,0.04c-0.17,0.01-0.34,0.01-0.51,0.01c-0.28,0.01-0.56-0.02-0.84-0.1c-0.18-0.05-0.34-0.16-0.46-0.3c-0.11-0.14-0.17-0.31-0.18-0.49c-0.01-0.23-0.01-0.46,0.03-0.69l0.37-2.83h-0.85L106.23,98.54z"/>
	<path id="Path_43" d="M112.78,104.14c-0.44,0.01-0.89-0.06-1.31-0.21c-0.35-0.12-0.66-0.32-0.91-0.59c-0.23-0.26-0.4-0.56-0.49-0.9c-0.1-0.38-0.12-0.77-0.06-1.16c0.05-0.4,0.17-0.79,0.35-1.15c0.17-0.34,0.4-0.65,0.67-0.91c0.28-0.26,0.6-0.46,0.96-0.6c0.38-0.14,0.79-0.21,1.19-0.21c0.36-0.01,0.72,0.06,1.06,0.19c0.28,0.12,0.53,0.31,0.71,0.55c0.19,0.25,0.31,0.54,0.37,0.85c0.06,0.37,0.07,0.75,0.02,1.12l-0.08,0.59h-3.82c-0.01,0.21,0.03,0.43,0.12,0.62c0.08,0.16,0.2,0.3,0.34,0.4c0.16,0.11,0.34,0.19,0.53,0.23c0.22,0.05,0.44,0.08,0.67,0.08c0.23,0,0.45-0.02,0.68-0.05c0.23-0.03,0.46-0.08,0.68-0.15l0.03,1.08c-0.26,0.07-0.53,0.12-0.8,0.16C113.39,104.12,113.09,104.14,112.78,104.14 M113.03,99.41c-0.34,0-0.67,0.12-0.92,0.35c-0.27,0.24-0.46,0.57-0.53,0.92H114c0.07-0.32,0-0.65-0.18-0.92C113.63,99.53,113.34,99.4,113.03,99.41"/>
	<path id="Path_44" d="M120,99.57c-0.07-0.02-0.14-0.03-0.21-0.04c-0.07-0.01-0.15-0.01-0.22-0.01c-0.18,0-0.36,0.03-0.53,0.09c-0.18,0.07-0.34,0.17-0.47,0.31c-0.16,0.17-0.29,0.36-0.37,0.57c-0.11,0.28-0.19,0.57-0.22,0.87l-0.35,2.64h-1.5l0.72-5.47h1.47l-0.09,0.71h0.02c0.32-0.55,0.93-0.87,1.57-0.84c0.07,0,0.14,0,0.21,0.01s0.14,0.01,0.2,0.01L120,99.57z"/>
	<path id="Path_45" d="M158.15,89.66c-0.2,0.33-0.6,0.49-0.98,0.39c-0.73-0.21-1.44-0.44-2.17-0.63c-0.71-0.21-1.44-0.4-2.15-0.58c-1.45-0.36-2.88-0.69-4.35-0.94l-0.01-0.01c-0.68-0.11-1.14-0.75-1.03-1.42v-0.02c0.03-0.13,0.07-0.26,0.14-0.38c0.69-1.22,1.45-2.39,2.29-3.5c0.8-1.11,1.68-2.18,2.61-3.19c0.32-0.35,0.86-0.37,1.22-0.06c0.28,0.26,0.36,0.68,0.18,1.02l-0.01,0.01c-0.63,1.19-1.33,2.35-2.02,3.5l-1.03,1.71c-0.04,0.08-0.09,0.15-0.14,0.23c0.96,0.22,1.91,0.5,2.84,0.82c0.74,0.25,1.47,0.54,2.19,0.85c0.72,0.33,1.43,0.65,2.11,1.04c0.41,0.23,0.55,0.75,0.31,1.15c0,0,0,0,0,0L158.15,89.66"/>
	<path id="Path_46" d="M141.24,87.76c-0.12,0.06-0.25,0.11-0.38,0.13l-0.02,0.01c-1.46,0.26-2.91,0.58-4.35,0.94c-0.72,0.18-1.44,0.37-2.16,0.58c-0.72,0.18-1.43,0.42-2.16,0.63h-0.01c-0.45,0.13-0.93-0.13-1.06-0.58c-0.1-0.38,0.06-0.77,0.4-0.97c0.68-0.38,1.39-0.71,2.1-1.04c0.71-0.33,1.46-0.6,2.2-0.85c0.93-0.32,1.88-0.6,2.84-0.82c-0.05-0.08-0.09-0.15-0.14-0.23l-1.03-1.71c-0.69-1.14-1.39-2.3-2.02-3.5v-0.01c-0.22-0.41-0.07-0.91,0.34-1.13c0,0,0,0,0,0l0.02-0.01c0.35-0.17,0.77-0.1,1.03,0.18c0.93,1.01,1.8,2.07,2.61,3.19c0.84,1.12,1.61,2.28,2.3,3.5c0.33,0.6,0.11,1.35-0.49,1.68c0,0,0,0,0,0L141.24,87.76"/>
	<path id="Path_47" d="M150.17,103.56c-0.38,0.14-0.81,0-1.03-0.34v-0.01c-0.48-0.77-0.93-1.55-1.41-2.32l-1.37-2.34l-1.37-2.32c-0.1-0.18-0.21-0.35-0.31-0.53c-0.11,0.18-0.22,0.36-0.32,0.53l-1.35,2.33l-1.37,2.34c-0.48,0.77-0.94,1.55-1.43,2.31l-0.01,0.01c-0.26,0.39-0.79,0.5-1.18,0.25c-0.34-0.21-0.48-0.63-0.34-1c0.32-0.86,0.69-1.68,1.05-2.53c0.37-0.83,0.76-1.66,1.16-2.47c0.4-0.82,0.82-1.63,1.27-2.44c0.44-0.83,0.93-1.64,1.46-2.42l0.01-0.02c0.4-0.57,1.17-0.72,1.75-0.34c0.14,0.1,0.26,0.22,0.35,0.36c0.55,0.83,1,1.61,1.44,2.43c0.44,0.82,0.86,1.62,1.26,2.44c0.4,0.82,0.8,1.64,1.16,2.47s0.74,1.66,1.08,2.52c0.17,0.43-0.05,0.92-0.48,1.09c0,0,0,0-0.01,0L150.17,103.56"/>
	<path id="Path_48" d="M143.8,75.68c-0.18-0.62-0.29-1.26-0.34-1.91c-0.05-0.64-0.07-1.27-0.06-1.91c0-1.29,0.15-2.57,0.44-3.83c0.12-0.47,0.61-0.75,1.08-0.63c0.31,0.08,0.55,0.33,0.63,0.64c0.28,1.26,0.41,2.54,0.41,3.83c0.01,0.64-0.02,1.28-0.08,1.92c-0.06,0.65-0.18,1.29-0.36,1.91c-0.15,0.47-0.66,0.73-1.13,0.58C144.09,76.18,143.88,75.96,143.8,75.68"/>
	<path id="Path_49" d="M161.24,95.35c-0.25,0.39-0.73,0.55-1.16,0.41h-0.01c-0.93-0.32-1.84-0.66-2.78-0.94c-0.92-0.31-1.86-0.58-2.79-0.85c-0.9-0.24-1.8-0.47-2.7-0.67c0.6,1.08,1.23,2.16,1.86,3.26c0.56,0.99,1.13,2,1.66,3.02c0.52,1.04,1.05,2.07,1.49,3.14c0.2,0.48-0.02,1.03-0.5,1.24c0,0,0,0,0,0l-0.03,0.01c-0.43,0.17-0.93,0.02-1.19-0.36l-3.77-5.67c-1.3-1.93-2.48-3.93-3.55-5.99l-0.01-0.01c-0.35-0.7-0.07-1.55,0.62-1.9c0,0,0,0,0,0l0.03-0.02c0.28-0.14,0.59-0.18,0.9-0.13c2.04,0.34,4.05,0.86,6,1.56c0.98,0.34,1.93,0.73,2.86,1.16c0.93,0.45,1.84,0.89,2.73,1.42c0.45,0.27,0.6,0.86,0.33,1.31c0,0,0,0,0,0L161.24,95.35"/>
	<path id="Path_50" d="M141.54,91.94L141.54,91.94c-1.07,2.07-2.25,4.08-3.55,6l-3.75,5.68c-0.3,0.44-0.9,0.56-1.35,0.28c-0.39-0.25-0.55-0.74-0.37-1.17c0.44-1.07,0.97-2.11,1.49-3.15c0.52-1.02,1.08-2.03,1.66-3.01c0.62-1.1,1.25-2.18,1.85-3.26c-0.9,0.21-1.8,0.43-2.7,0.68c-0.93,0.26-1.87,0.54-2.79,0.84c-0.94,0.28-1.85,0.64-2.78,0.95h-0.01c-0.51,0.18-1.06-0.08-1.25-0.58c-0.16-0.43,0.02-0.91,0.41-1.14c0.87-0.53,1.79-0.98,2.72-1.43c0.93-0.43,1.89-0.83,2.85-1.17c1.95-0.7,3.96-1.23,6-1.58c0.79-0.14,1.54,0.38,1.68,1.16C141.72,91.36,141.68,91.67,141.54,91.94"/>
	<path id="Path_51" d="M157.92,97.16c0.61,0.31,1.2,0.68,1.73,1.1c0.53,0.42,1.04,0.87,1.52,1.35c0.99,0.95,1.84,2.02,2.53,3.2c0.23,0.41,0.08,0.93-0.33,1.16c0,0,0,0,0,0l-0.01,0.01c-0.29,0.16-0.65,0.14-0.92-0.05l-0.01-0.01c-1.08-0.77-2.09-1.61-3.04-2.53c-0.48-0.45-0.94-0.92-1.38-1.41c-0.45-0.49-0.86-1.02-1.23-1.58c-0.26-0.4-0.14-0.94,0.26-1.19l0.03-0.02C157.33,97.04,157.65,97.02,157.92,97.16"/>
	<path id="Path_52" d="M132.54,98.38c-0.36,0.56-0.77,1.09-1.22,1.59c-0.44,0.49-0.9,0.96-1.38,1.41c-0.94,0.92-1.96,1.77-3.03,2.54l-0.01,0.01c-0.4,0.27-0.94,0.18-1.22-0.21c-0.19-0.27-0.21-0.62-0.05-0.91c0.69-1.18,1.54-2.26,2.52-3.21c0.48-0.48,0.98-0.93,1.51-1.35c0.54-0.43,1.12-0.8,1.73-1.11c0.44-0.22,0.97-0.04,1.19,0.39c0.13,0.27,0.12,0.58-0.03,0.84L132.54,98.38z"/>
	<path id="Path_53" d="M151.66,74.79c-0.84,1.75-1.78,3.43-2.74,5.1c-0.98,1.66-1.97,3.31-3.02,4.94l-0.01,0.01c-0.28,0.41-0.74,0.66-1.24,0.67h-0.01c-0.5,0-0.96-0.25-1.23-0.67c-1.02-1.64-2.02-3.29-2.97-4.96c-0.49-0.84-0.96-1.67-1.42-2.52s-0.93-1.7-1.36-2.57c-0.23-0.47-0.04-1.04,0.44-1.27c0,0,0,0,0,0l0.02-0.01c0.42-0.2,0.92-0.09,1.2,0.28c0.6,0.76,1.16,1.55,1.73,2.33c0.56,0.79,1.12,1.58,1.66,2.37c0.66,0.96,1.3,1.93,1.93,2.9c0.63-0.98,1.27-1.95,1.93-2.91c1.09-1.6,2.21-3.17,3.43-4.69c0.34-0.42,0.95-0.49,1.37-0.16C151.74,73.89,151.86,74.38,151.66,74.79"/>
</g>
</svg>
