<?xml version="1.0" encoding="utf-8"?>
<!-- Generator: Adobe Illustrator 26.0.1, SVG Export Plug-In . SVG Version: 6.00 Build 0)  -->
<svg version="1.1" id="Layer_1" xmlns="http://www.w3.org/2000/svg" xmlns:xlink="http://www.w3.org/1999/xlink" x="0px" y="0px"
	 viewBox="0 0 338 338" style="enable-background:new 0 0 338 338;" xml:space="preserve">
<style type="text/css">
	.st0{fill-rule:evenodd;clip-rule:evenodd;fill:#156839;}
	.st1{filter:url(#Adobe_OpacityMaskFilter);}
	.st2{fill-rule:evenodd;clip-rule:evenodd;fill:#FFFFFF;}
	.st3{mask:url(#mask-2_00000014620218378550289340000000709683933004985008_);fill-rule:evenodd;clip-rule:evenodd;fill:#156839;}
	.st4{filter:url(#Adobe_OpacityMaskFilter_00000028284382353527428890000011394183021019275173_);}
	.st5{mask:url(#mask-2_00000131333856305179162760000014103277298327052698_);fill-rule:evenodd;clip-rule:evenodd;fill:#156839;}
	.st6{filter:url(#Adobe_OpacityMaskFilter_00000062153874170382877840000001130986696890809234_);}
	.st7{mask:url(#mask-2_00000073711723828912138640000008581242994702973875_);fill-rule:evenodd;clip-rule:evenodd;fill:#156839;}
	.st8{filter:url(#Adobe_OpacityMaskFilter_00000042715332510754118960000016044500269434583987_);}
	.st9{mask:url(#mask-2_00000051372472215081784080000003367257055707396271_);fill-rule:evenodd;clip-rule:evenodd;fill:#156839;}
	.st10{filter:url(#Adobe_OpacityMaskFilter_00000158024157903280450590000005765510343320795289_);}
	.st11{mask:url(#mask-2_00000175319782172966331620000000309126064554130082_);fill-rule:evenodd;clip-rule:evenodd;fill:#156839;}
	.st12{filter:url(#Adobe_OpacityMaskFilter_00000034807302832921573530000016424452956103043990_);}
	.st13{mask:url(#mask-2_00000069398540241426628140000000074589041865105032_);fill-rule:evenodd;clip-rule:evenodd;fill:#156839;}
	.st14{fill-rule:evenodd;clip-rule:evenodd;fill:#FFFFFE;}
</style>
<g id="Desktop">
	<g id="SAUDI_MADE_main_horizontal_RGB" transform="translate(0.000000, 0.000000)">
		<path id="Fill-1" class="st0" d="M157.9,129.5c-1.3-1-2.5-1.8-3.8-2.3c-1.3-0.5-2.5-0.8-3.7-0.8c-1.5,0-2.7,0.4-3.7,1.1
			c-1,0.7-1.4,1.7-1.4,2.8c0,0.8,0.2,1.5,0.7,2c0.5,0.5,1.1,1,1.9,1.3c0.8,0.4,1.6,0.7,2.6,1c1,0.3,1.9,0.6,2.9,0.9
			c3.8,1.3,6.6,3,8.4,5.1c1.8,2.1,2.7,4.9,2.7,8.3c0,2.3-0.4,4.4-1.2,6.3c-0.8,1.9-1.9,3.5-3.4,4.8c-1.5,1.3-3.3,2.4-5.5,3.1
			c-2.2,0.7-4.6,1.1-7.4,1.1c-5.7,0-11-1.7-15.8-5.1l5-9.4c1.8,1.6,3.5,2.7,5.2,3.5c1.7,0.8,3.4,1.1,5.1,1.1c1.9,0,3.3-0.4,4.3-1.3
			c0.9-0.9,1.4-1.9,1.4-3c0-0.7-0.1-1.3-0.4-1.8c-0.2-0.5-0.6-1-1.2-1.4c-0.6-0.4-1.3-0.8-2.2-1.2c-0.9-0.4-2-0.8-3.3-1.2
			c-1.5-0.5-3-1-4.4-1.6c-1.5-0.6-2.7-1.3-3.9-2.3c-1.1-1-2-2.2-2.7-3.6c-0.7-1.5-1-3.3-1-5.5c0-2.2,0.4-4.2,1.1-6.1
			c0.7-1.8,1.8-3.4,3.1-4.6c1.3-1.3,3-2.3,4.9-3c1.9-0.7,4.1-1.1,6.5-1.1c2.2,0,4.6,0.3,7,0.9c2.4,0.6,4.7,1.5,7,2.7L157.9,129.5"/>
		<path id="Fill-2" class="st0" d="M196,146.2l-5.3-15l-5.3,15H196z M199.1,155.1h-16.8l-2.7,7.8h-12.5l17.2-45.1h12.8l17.2,45.1
			h-12.5L199.1,155.1L199.1,155.1z"/>
		<path id="Fill-3" class="st0" d="M229.3,117.8v24.5c0,1.3,0.1,2.7,0.2,4c0.1,1.4,0.4,2.6,0.9,3.7c0.5,1.1,1.3,2,2.4,2.7
			c1.1,0.7,2.6,1.1,4.5,1.1c2,0,3.5-0.4,4.5-1.1c1.1-0.7,1.8-1.6,2.4-2.7c0.5-1.1,0.8-2.4,0.9-3.7c0.1-1.4,0.2-2.7,0.2-4v-24.5h11.7
			V144c0,7-1.6,12.1-4.8,15.4c-3.2,3.2-8.2,4.8-14.8,4.8c-6.7,0-11.6-1.6-14.8-4.8c-3.2-3.2-4.8-8.4-4.8-15.4v-26.2H229.3"/>
		<path id="Fill-4" class="st0" d="M278.1,153h2.7c2,0,3.8-0.3,5.4-1c1.6-0.6,2.9-1.5,4-2.6c1.1-1.1,1.9-2.4,2.5-4
			c0.6-1.5,0.9-3.2,0.9-5.1c0-1.8-0.3-3.5-0.9-5c-0.6-1.6-1.4-2.9-2.5-4c-1.1-1.1-2.4-2-4-2.6c-1.6-0.6-3.4-1-5.4-1h-2.7V153z
			 M266.4,117.8h17.4c3.1,0,6,0.6,8.6,1.9c2.7,1.2,5,2.9,7.1,4.9c2,2.1,3.6,4.5,4.8,7.2c1.2,2.7,1.7,5.6,1.7,8.6
			c0,3-0.6,5.8-1.7,8.5c-1.1,2.7-2.7,5.1-4.7,7.2c-2,2.1-4.4,3.7-7.1,5c-2.7,1.2-5.6,1.9-8.7,1.9h-17.4V117.8L266.4,117.8z"/>
		<g id="Group-12" transform="translate(0.000000, 0.042000)">
			<g id="Clip-6">
			</g>
			<defs>
				<filter id="Adobe_OpacityMaskFilter" filterUnits="userSpaceOnUse" x="313.4" y="117.8" width="11.7" height="45.1">
					<feColorMatrix  type="matrix" values="1 0 0 0 0  0 1 0 0 0  0 0 1 0 0  0 0 0 1 0"/>
				</filter>
			</defs>
			
				<mask maskUnits="userSpaceOnUse" x="313.4" y="117.8" width="11.7" height="45.1" id="mask-2_00000014620218378550289340000000709683933004985008_">
				<g class="st1">
					<polygon id="path-1_00000080185062076102290180000003080140371193070012_" class="st2" points="12.7,116.7 325.1,116.7 
						325.1,220.8 12.7,220.8 					"/>
				</g>
			</mask>
			<polygon id="Fill-5" class="st3" points="313.4,162.9 325.1,162.9 325.1,117.8 313.4,117.8 			"/>
			<defs>
				
					<filter id="Adobe_OpacityMaskFilter_00000067949992260532297980000006857456286898486455_" filterUnits="userSpaceOnUse" x="131.1" y="175.9" width="56.4" height="45">
					<feColorMatrix  type="matrix" values="1 0 0 0 0  0 1 0 0 0  0 0 1 0 0  0 0 0 1 0"/>
				</filter>
			</defs>
			
				<mask maskUnits="userSpaceOnUse" x="131.1" y="175.9" width="56.4" height="45" id="mask-2_00000131333856305179162760000014103277298327052698_">
				<g style="filter:url(#Adobe_OpacityMaskFilter_00000067949992260532297980000006857456286898486455_);">
					<polygon id="path-1_00000175282822819681984570000014324467330437052577_" class="st2" points="12.7,116.7 325.1,116.7 
						325.1,220.8 12.7,220.8 					"/>
				</g>
			</mask>
			<polyline id="Fill-7" class="st5" points="168.2,175.9 159.3,199.8 150.3,175.9 138.7,175.9 131.1,220.8 142.7,220.8 146.6,195 
				156.7,220.8 161.3,220.8 171.9,195 175.8,220.8 187.4,220.8 179.8,175.9 168.2,175.9 			"/>
			<defs>
				
					<filter id="Adobe_OpacityMaskFilter_00000076598730046844367780000013565892885841848767_" filterUnits="userSpaceOnUse" x="193.9" y="175.9" width="47" height="45">
					<feColorMatrix  type="matrix" values="1 0 0 0 0  0 1 0 0 0  0 0 1 0 0  0 0 0 1 0"/>
				</filter>
			</defs>
			
				<mask maskUnits="userSpaceOnUse" x="193.9" y="175.9" width="47" height="45" id="mask-2_00000073711723828912138640000008581242994702973875_">
				<g style="filter:url(#Adobe_OpacityMaskFilter_00000076598730046844367780000013565892885841848767_);">
					<polygon id="path-1_00000032638711698524652060000000518830952406988218_" class="st2" points="12.7,116.7 325.1,116.7 
						325.1,220.8 12.7,220.8 					"/>
				</g>
			</mask>
			<path id="Fill-8" class="st7" d="M211,175.9l-17.1,45h12.5l2.7-7.8h16.7l2.7,7.8h12.5l-17.1-45H211z M217.4,189.2l5.2,15h-10.5
				L217.4,189.2L217.4,189.2z"/>
			<defs>
				
					<filter id="Adobe_OpacityMaskFilter_00000150100383675739337380000011755378542321622660_" filterUnits="userSpaceOnUse" x="249.3" y="175.9" width="39.4" height="45">
					<feColorMatrix  type="matrix" values="1 0 0 0 0  0 1 0 0 0  0 0 1 0 0  0 0 0 1 0"/>
				</filter>
			</defs>
			
				<mask maskUnits="userSpaceOnUse" x="249.3" y="175.9" width="39.4" height="45" id="mask-2_00000051372472215081784080000003367257055707396271_">
				<g style="filter:url(#Adobe_OpacityMaskFilter_00000150100383675739337380000011755378542321622660_);">
					<polygon id="path-1_00000137818151398584906800000007416559300037922743_" class="st2" points="12.7,116.7 325.1,116.7 
						325.1,220.8 12.7,220.8 					"/>
				</g>
			</mask>
			<path id="Fill-9" class="st9" d="M261,210.9h2.7c2,0,3.8-0.3,5.4-1c1.6-0.6,2.9-1.5,4-2.6c1.1-1.1,1.9-2.4,2.5-4
				c0.6-1.5,0.9-3.2,0.9-5c0-1.8-0.3-3.5-0.9-5c-0.6-1.6-1.4-2.9-2.5-4c-1.1-1.1-2.4-2-4-2.6c-1.6-0.6-3.4-1-5.4-1H261V210.9z
				 M249.3,175.9h17.3c3.1,0,5.9,0.6,8.6,1.8c2.7,1.2,5,2.9,7,4.9c2,2,3.6,4.4,4.7,7.2c1.2,2.7,1.7,5.6,1.7,8.6
				c0,2.9-0.6,5.8-1.7,8.5c-1.1,2.7-2.7,5.1-4.7,7.2c-2,2.1-4.4,3.7-7,5c-2.7,1.2-5.6,1.8-8.7,1.8h-17.3V175.9L249.3,175.9z"/>
			<defs>
				
					<filter id="Adobe_OpacityMaskFilter_00000164489391807479136630000003791976698605885568_" filterUnits="userSpaceOnUse" x="299.6" y="175.9" width="25.6" height="45">
					<feColorMatrix  type="matrix" values="1 0 0 0 0  0 1 0 0 0  0 0 1 0 0  0 0 0 1 0"/>
				</filter>
			</defs>
			
				<mask maskUnits="userSpaceOnUse" x="299.6" y="175.9" width="25.6" height="45" id="mask-2_00000175319782172966331620000000309126064554130082_">
				<g style="filter:url(#Adobe_OpacityMaskFilter_00000164489391807479136630000003791976698605885568_);">
					<polygon id="path-1_00000182505621589837952000000005425988396259808647_" class="st2" points="12.7,116.7 325.1,116.7 
						325.1,220.8 12.7,220.8 					"/>
				</g>
			</mask>
			<polyline id="Fill-10" class="st11" points="299.6,175.9 299.6,220.9 325.1,220.9 325.1,211 311.2,211 311.2,203.2 324.4,203.2 
				324.4,193.3 311.2,193.3 311.2,185.8 325.1,185.8 325.1,175.9 299.6,175.9 			"/>
			<defs>
				
					<filter id="Adobe_OpacityMaskFilter_00000018201978570879758060000013492506145225049768_" filterUnits="userSpaceOnUse" x="12.7" y="116.7" width="104.1" height="104.1">
					<feColorMatrix  type="matrix" values="1 0 0 0 0  0 1 0 0 0  0 0 1 0 0  0 0 0 1 0"/>
				</filter>
			</defs>
			
				<mask maskUnits="userSpaceOnUse" x="12.7" y="116.7" width="104.1" height="104.1" id="mask-2_00000069398540241426628140000000074589041865105032_">
				<g style="filter:url(#Adobe_OpacityMaskFilter_00000018201978570879758060000013492506145225049768_);">
					<polygon id="path-1_00000021799974572095145730000017867775018202937018_" class="st2" points="12.7,116.7 325.1,116.7 
						325.1,220.8 12.7,220.8 					"/>
				</g>
			</mask>
			<polygon id="Fill-11" class="st13" points="12.7,220.8 116.7,220.8 116.7,116.7 12.7,116.7 			"/>
		</g>
		<path id="Fill-13" class="st14" d="M89.9,165.7c5.7,7.4,8.8,12.9,8.8,12.9c-1.9,3.4-4.1,7-6.5,10.9c0,0-3.5-5.8-9.7-14
			c-3.1-4.1-11.2-13.3-11.3-13.5c0,0.2,0,40.2,0,43.9l0,0c0,0,0,0,0,0h-13c0-3.8,0-43.8,0-44c-0.1,0.1-8.2,9.3-11.3,13.5
			c-6.2,8.2-9.7,14-9.7,14c-2.4-3.9-4.6-7.5-6.5-10.9c0,0,3.1-5.4,8.8-12.9c2.5-3.3,8.5-10.1,10-11.8c-4.3,0.8-8.3,1.8-11.3,2.8
			c-2.9,1-5.1,1.9-6.5,2.6c-1.4,0.6-2.1,1.1-2.1,1.1c0.9-3.5,1.9-6.7,3.1-9.5c0,0,0.7-0.5,2-1.2c1.3-0.8,3.4-1.9,6.1-2.9
			c2.8-1.1,6.4-2.3,10.4-3.1c-0.1-0.1-2.7-2.2-3.7-2.8c-4.7-3-6.5-2-6.5-2c2.3-1.7,4.7-3,7-4c0,0,0.4-0.2,1.1-0.4
			c0.7-0.2,1.9-0.3,3.5,0c1.7,0.3,6.8,2.7,6.8,2.7c0-0.1,0.2-2.3,0.3-3.1c0.2-2.3,0.8-2.2,1.2-2.2h7.5c0.4,0,0.9-0.1,1.2,2.2
			c0.1,0.8,0.3,3.1,0.3,3.1c0.1,0,5.1-2.4,6.8-2.7c1.6-0.3,2.7-0.2,3.5,0c0.7,0.2,1.1,0.4,1.1,0.4c2.3,1,4.7,2.3,7,4
			c0,0-1.8-1-6.5,2c-1,0.7-3.6,2.7-3.7,2.8c4.1,0.8,7.6,2,10.4,3.1c2.7,1.1,4.7,2.2,6.1,2.9c1.3,0.8,2,1.2,2,1.2
			c1.2,2.8,2.2,5.9,3.1,9.5c0,0-0.7-0.4-2.1-1.1c-1.4-0.7-3.6-1.6-6.5-2.6c-3-1-7-2-11.3-2.8C81.3,155.6,87.4,162.4,89.9,165.7"/>
	</g>
</g>
</svg>
