<svg xmlns="http://www.w3.org/2000/svg" xmlns:xlink="http://www.w3.org/1999/xlink" version="1.2" width="114" height="137" viewBox="0 0 114.06 137.053" baseProfile="tiny-ps">
  <title>Zakat, Tax and Customs Authority</title>
  <linearGradient id="g1" gradientUnits="userSpaceOnUse" x1="74.911" y1="141.1323" x2="-17.2989" y2="59.6668">
    <stop offset="0" stop-color="#62B34F"/>
    <stop offset="0.46" stop-color="#51BAB4"/>
    <stop offset="1" stop-color="#0094D3"/>
  </linearGradient>
  <polygon points="9.65,42.669 55.431,11.451 56.023,12.318 10.241,43.537 " fill="url(#g1)"/>
  <linearGradient id="g2" gradientUnits="userSpaceOnUse" x1="71.6699" y1="144.7911" x2="-20.5399" y2="63.3256">
    <stop offset="0" stop-color="#62B34F"/>
    <stop offset="0.46" stop-color="#51BAB4"/>
    <stop offset="1" stop-color="#0094D3"/>
  </linearGradient>
  <polygon points="9.707,37.024 46.396,12.015 46.987,12.883 10.298,37.891 " fill="url(#g2)"/>
  <linearGradient id="g3" gradientUnits="userSpaceOnUse" x1="68.2769" y1="148.6304" x2="-23.9245" y2="67.165">
    <stop offset="0" stop-color="#62B34F"/>
    <stop offset="0.46" stop-color="#51BAB4"/>
    <stop offset="1" stop-color="#0094D3"/>
  </linearGradient>
  <polygon points="9.725,31.315 35.251,13.856 35.844,14.722 10.318,32.181 " fill="url(#g3)"/>
  <linearGradient id="g4" gradientUnits="userSpaceOnUse" x1="64.722" y1="152.6601" x2="-27.4795" y2="71.1946">
    <stop offset="0" stop-color="#62B34F"/>
    <stop offset="0.46" stop-color="#51BAB4"/>
    <stop offset="1" stop-color="#0094D3"/>
  </linearGradient>
  <polygon points="9.762,25.641 20.35,18.327 20.946,19.19 10.359,26.504 " fill="url(#g4)"/>
  <linearGradient id="g5" gradientUnits="userSpaceOnUse" x1="106.4451" y1="105.4349" x2="14.2436" y2="23.9694">
    <stop offset="0" stop-color="#62B34F"/>
    <stop offset="0.46" stop-color="#51BAB4"/>
    <stop offset="1" stop-color="#0094D3"/>
  </linearGradient>
  <polygon points="78.993,51.774 78.985,51.765 71.564,56.829 71.572,56.838 33.392,82.866 34.184,84.023 28.995,87.646 29.403,88.229 18.359,95.934 18.958,96.8 31.144,88.288 31.144,88.288 35.166,85.472 35.166,85.472 73.946,59.028 73.147,57.862 79.976,53.206 79.585,52.64 104.497,35.657 103.905,34.791 " fill="url(#g5)"/>
  <linearGradient id="g6" gradientUnits="userSpaceOnUse" x1="109.3754" y1="102.1299" x2="17.1656" y2="20.6562">
    <stop offset="0" stop-color="#62B34F"/>
    <stop offset="0.46" stop-color="#51BAB4"/>
    <stop offset="1" stop-color="#0094D3"/>
  </linearGradient>
  <polygon points="81.101,55.98 81.101,55.971 73.155,61.385 73.163,61.393 36.216,86.589 36.999,87.738 31.443,91.611 31.835,92.169 21.007,99.748 21.615,100.606 32.435,93.035 32.443,93.043 37.982,89.179 37.99,89.187 75.062,63.909 74.263,62.751 82.083,57.421 81.692,56.846 104.463,41.321 103.872,40.454 " fill="url(#g6)"/>
  <linearGradient id="g7" gradientUnits="userSpaceOnUse" x1="112.3265" y1="98.7871" x2="20.1167" y2="17.3216">
    <stop offset="0" stop-color="#62B34F"/>
    <stop offset="0.46" stop-color="#51BAB4"/>
    <stop offset="1" stop-color="#0094D3"/>
  </linearGradient>
  <polygon points="83.133,60.244 83.125,60.236 76.553,64.717 76.553,64.725 38.84,90.437 39.622,91.586 34.533,95.142 34.925,95.7 23.989,103.363 24.589,104.221 35.525,96.558 35.533,96.575 40.605,93.035 40.614,93.043 78.344,67.315 77.553,66.158 84.107,61.685 83.724,61.11 104.43,46.993 103.839,46.127 " fill="url(#g7)"/>
  <linearGradient id="g8" gradientUnits="userSpaceOnUse" x1="115.2668" y1="95.4469" x2="23.0653" y2="13.9815">
    <stop offset="0" stop-color="#62B34F"/>
    <stop offset="0.46" stop-color="#51BAB4"/>
    <stop offset="1" stop-color="#0094D3"/>
  </linearGradient>
  <polygon points="86.231,63.776 86.231,63.767 79.71,68.207 79.718,68.223 41.58,94.11 42.388,95.292 35.883,99.832 36.283,100.406 27.254,106.72 27.862,107.577 38.173,100.373 38.173,100.365 45.103,95.526 81.825,70.597 81.034,69.423 87.214,65.208 86.823,64.642 104.397,52.665 103.805,51.799 " fill="url(#g8)"/>
  <linearGradient id="g9" gradientUnits="userSpaceOnUse" x1="118.2811" y1="92.0413" x2="26.0796" y2="10.5759">
    <stop offset="0" stop-color="#62B34F"/>
    <stop offset="0.46" stop-color="#51BAB4"/>
    <stop offset="1" stop-color="#0094D3"/>
  </linearGradient>
  <polygon points="90.063,66.799 90.054,66.782 82.925,71.646 82.925,71.655 49.842,94.218 50.625,95.359 42.804,100.831 43.204,101.406 30.985,109.943 31.585,110.801 44.886,101.506 44.886,101.506 51.608,96.808 51.616,96.816 84.899,74.12 84.107,72.954 91.037,68.232 90.654,67.665 104.363,58.312 103.772,57.446 " fill="url(#g9)"/>
  <linearGradient id="g10" gradientUnits="userSpaceOnUse" x1="121.3981" y1="88.5159" x2="29.1966" y2="7.0504">
    <stop offset="0" stop-color="#62B34F"/>
    <stop offset="0.46" stop-color="#51BAB4"/>
    <stop offset="1" stop-color="#0094D3"/>
  </linearGradient>
  <polygon points="98.541,67.074 98.35,66.782 89.979,72.488 89.979,72.488 57.955,94.326 58.754,95.492 50.125,101.522 50.525,102.097 35.383,112.683 35.983,113.541 52.191,102.214 52.191,102.214 60.528,96.383 91.753,75.095 90.962,73.937 99.333,68.232 98.841,67.507 99.141,67.94 104.338,64.267 103.73,63.409 " fill="url(#g10)"/>
  <linearGradient id="g11" gradientUnits="userSpaceOnUse" x1="124.5883" y1="84.9009" x2="32.3868" y2="3.4355">
    <stop offset="0" stop-color="#62B34F"/>
    <stop offset="0.46" stop-color="#51BAB4"/>
    <stop offset="1" stop-color="#0094D3"/>
  </linearGradient>
  <polygon points="98.683,72.213 98.683,72.196 93.969,75.411 93.961,75.411 75.129,88.254 75.928,89.42 67.958,94.992 68.357,95.567 39.631,115.648 40.23,116.506 70.09,95.634 70.09,95.634 77.078,90.753 77.069,90.745 95.735,78.018 94.952,76.86 99.666,73.645 99.274,73.079 104.213,69.714 103.622,68.848 " fill="url(#g11)"/>
  <linearGradient id="g12" gradientUnits="userSpaceOnUse" x1="127.6679" y1="81.4217" x2="35.4665" y2="-0.0521">
    <stop offset="0" stop-color="#62B34F"/>
    <stop offset="0.46" stop-color="#51BAB4"/>
    <stop offset="1" stop-color="#0094D3"/>
  </linearGradient>
  <polygon points="99.624,77.418 99.524,77.277 95.085,80.3 95.077,80.3 80.126,90.486 80.917,91.653 73.963,96.517 74.363,97.1 44.087,118.255 44.686,119.113 76.511,96.875 76.511,96.866 82.625,92.602 96.851,82.899 96.068,81.749 100.507,78.718 100.016,78.001 103.406,75.686 103.014,75.111 " fill="url(#g12)"/>
  <linearGradient id="g13" gradientUnits="userSpaceOnUse" x1="78.3845" y1="137.1936" x2="-13.817" y2="55.7281">
    <stop offset="0" stop-color="#62B34F"/>
    <stop offset="0.46" stop-color="#51BAB4"/>
    <stop offset="1" stop-color="#0094D3"/>
  </linearGradient>
  <polygon points="13.869,49.3 13.869,49.3 18.125,46.326 18.125,46.326 34.217,35.357 33.426,34.199 40.497,29.385 40.114,28.819 63.935,12.569 63.343,11.703 39.523,27.944 39.514,27.936 32.443,32.759 32.443,32.75 15.402,44.369 16.201,45.535 12.154,48.359 12.562,48.933 9.605,51.007 10.205,51.865 " fill="url(#g13)"/>
  <linearGradient id="g14" gradientUnits="userSpaceOnUse" x1="81.6179" y1="133.5351" x2="-10.5836" y2="52.0697">
    <stop offset="0" stop-color="#62B34F"/>
    <stop offset="0.46" stop-color="#51BAB4"/>
    <stop offset="1" stop-color="#0094D3"/>
  </linearGradient>
  <polygon points="16.543,53.123 16.543,53.114 20.741,50.183 40.63,36.615 39.847,35.465 45.336,31.717 44.97,31.184 70.898,13.344 70.298,12.486 44.378,30.318 44.353,30.277 38.865,34.016 38.865,34.016 17.701,48.442 18.5,49.616 14.86,52.157 15.26,52.731 9.563,56.713 10.171,57.57 " fill="url(#g14)"/>
  <linearGradient id="g15" gradientUnits="userSpaceOnUse" x1="84.8373" y1="129.8915" x2="-7.3642" y2="48.426">
    <stop offset="0" stop-color="#62B34F"/>
    <stop offset="0.46" stop-color="#51BAB4"/>
    <stop offset="1" stop-color="#0094D3"/>
  </linearGradient>
  <polygon points="17.484,58.137 17.484,58.137 23.065,54.239 44.72,39.472 43.912,38.289 49.734,34.316 49.367,33.775 77.328,14.535 76.728,13.669 48.776,32.908 48.751,32.875 42.679,37.015 42.696,37.04 19.999,52.515 20.799,53.689 15.893,57.121 16.293,57.695 9.53,62.418 10.138,63.276 " fill="url(#g15)"/>
  <linearGradient id="g16" gradientUnits="userSpaceOnUse" x1="88.1537" y1="126.1335" x2="-4.0478" y2="44.668">
    <stop offset="0" stop-color="#62B34F"/>
    <stop offset="0.46" stop-color="#51BAB4"/>
    <stop offset="1" stop-color="#0094D3"/>
  </linearGradient>
  <polygon points="19.716,62.268 19.716,62.268 25.796,58.02 48.809,42.329 48.018,41.162 54.157,36.973 53.748,36.373 83.691,16.184 83.108,15.318 52.757,35.774 52.774,35.799 47.01,39.738 47.01,39.738 22.29,56.596 23.098,57.77 17.451,61.718 17.851,62.293 9.572,68.073 10.171,68.939 " fill="url(#g16)"/>
  <linearGradient id="g17" gradientUnits="userSpaceOnUse" x1="91.2449" y1="122.6423" x2="-0.9566" y2="41.1768">
    <stop offset="0" stop-color="#62B34F"/>
    <stop offset="0.46" stop-color="#51BAB4"/>
    <stop offset="1" stop-color="#0094D3"/>
  </linearGradient>
  <polygon points="22.44,66.008 26.363,63.267 26.363,63.276 52.891,45.177 52.099,44.019 58.962,39.338 58.579,38.772 88.688,18.241 88.097,17.375 57.988,37.906 57.979,37.898 51.075,42.603 51.075,42.612 24.589,60.669 25.372,61.827 20.308,65.366 20.716,65.949 10.055,73.379 10.663,74.237 22.448,66.016 " fill="url(#g17)"/>
  <linearGradient id="g18" gradientUnits="userSpaceOnUse" x1="94.3825" y1="119.0886" x2="2.181" y2="37.6232">
    <stop offset="0" stop-color="#62B34F"/>
    <stop offset="0.46" stop-color="#51BAB4"/>
    <stop offset="1" stop-color="#0094D3"/>
  </linearGradient>
  <polygon points="25.08,69.856 29.553,66.732 56.98,48.034 56.189,46.876 63.785,41.696 63.393,41.129 94.327,20.032 93.736,19.166 62.802,40.263 62.794,40.246 54.748,45.735 54.748,45.743 26.879,64.742 27.679,65.916 22.898,69.256 23.298,69.831 10.996,78.426 11.596,79.284 25.088,69.864 " fill="url(#g18)"/>
  <linearGradient id="g19" gradientUnits="userSpaceOnUse" x1="97.5337" y1="115.5205" x2="5.3323" y2="34.055">
    <stop offset="0" stop-color="#62B34F"/>
    <stop offset="0.46" stop-color="#51BAB4"/>
    <stop offset="1" stop-color="#0094D3"/>
  </linearGradient>
  <polygon points="25.846,75.02 32.26,70.539 64.634,48.592 63.835,47.417 70.998,42.537 70.606,41.97 99.333,22.381 98.741,21.506 70.015,41.096 70.006,41.087 62.627,46.127 62.635,46.143 29.011,68.931 29.811,70.114 23.814,74.303 24.222,74.878 12.329,83.182 12.928,84.048 25.846,75.028 " fill="url(#g19)"/>
  <linearGradient id="g20" gradientUnits="userSpaceOnUse" x1="100.6156" y1="112.0388" x2="8.4141" y2="30.5734">
    <stop offset="0" stop-color="#62B34F"/>
    <stop offset="0.46" stop-color="#51BAB4"/>
    <stop offset="1" stop-color="#0094D3"/>
  </linearGradient>
  <polygon points="26.638,80.1 32.318,76.136 67.466,52.165 66.683,51.016 73.879,46.118 73.488,45.543 103.88,24.821 103.289,23.955 72.897,44.677 72.888,44.669 65.7,49.575 65.692,49.566 29.761,74.07 30.552,75.236 24.472,79.484 24.872,80.059 14.011,87.646 14.611,88.513 26.646,80.1 " fill="url(#g20)"/>
  <linearGradient id="g21" gradientUnits="userSpaceOnUse" x1="103.5316" y1="108.7396" x2="11.3218" y2="27.2741">
    <stop offset="0" stop-color="#62B34F"/>
    <stop offset="0.46" stop-color="#51BAB4"/>
    <stop offset="1" stop-color="#0094D3"/>
  </linearGradient>
  <polygon points="27.754,84.956 32.568,81.6 32.576,81.6 70.09,56.021 69.307,54.864 76.17,50.183 75.778,49.616 104.53,30.01 103.939,29.144 75.187,48.75 75.179,48.733 68.316,53.414 68.316,53.414 30.794,79.001 31.585,80.15 25.913,84.115 26.338,84.715 16.002,91.869 16.601,92.727 27.779,84.989 " fill="url(#g21)"/>
  <linearGradient id="g22" gradientUnits="userSpaceOnUse" x1="131.0811" y1="76.6347" x2="38.8796" y2="-4.8308">
    <stop offset="0" stop-color="#62B34F"/>
    <stop offset="0.46" stop-color="#51BAB4"/>
    <stop offset="1" stop-color="#0094D3"/>
  </linearGradient>
  <polygon points="48.444,120.79 100.344,84.624 100.944,85.485 49.044,121.651 " fill="url(#g22)"/>
  <linearGradient id="g23" gradientUnits="userSpaceOnUse" x1="134.4129" y1="74.3275" x2="42.2115" y2="-7.1379">
    <stop offset="0" stop-color="#62B34F"/>
    <stop offset="0.46" stop-color="#51BAB4"/>
    <stop offset="1" stop-color="#0094D3"/>
  </linearGradient>
  <polygon points="52.585,124.741 96.302,94.352 96.9,95.213 53.183,125.601 " fill="url(#g23)"/>
  <linearGradient id="g24" gradientUnits="userSpaceOnUse" x1="137.5579" y1="70.7668" x2="45.3564" y2="-10.6986">
    <stop offset="0" stop-color="#62B34F"/>
    <stop offset="0.46" stop-color="#51BAB4"/>
    <stop offset="1" stop-color="#0094D3"/>
  </linearGradient>
  <polygon points="68.063,119.706 87.268,106.356 87.866,107.216 68.661,120.566 " fill="url(#g24)"/>
</svg>
